<svg xmlns="http://www.w3.org/2000/svg" xmlns:xlink="http://www.w3.org/1999/xlink" width="1263.399" height="194.111" viewBox="0 0 1263.399 194.111">
  <defs>
    <clipPath id="clip-path">
      <rect id="Rectangle_1" data-name="Rectangle 1" width="580.047" height="194.111" fill="#fff"/>
    </clipPath>
  </defs>
  <g id="Group_59" data-name="Group 59" transform="translate(-328.301 -745.972)">
    <text id="WELKOM_BIJ" data-name="WELKOM BIJ" transform="translate(328.301 882.528)" fill="#fff" font-size="96" font-family="Futura-Bold, Futura" font-weight="700"><tspan x="0" y="0">WELKOM BIJ</tspan></text>
    <g id="Group_12" data-name="Group 12" transform="translate(1011.653 745.972)">
      <g id="Group_1" data-name="Group 1" transform="translate(0 0)" clip-path="url(#clip-path)">
        <path id="Path_1" data-name="Path 1" d="M42.3,57.339H80.571q-1.582,5.9-3.367,10.724a48.448,48.448,0,0,1-4.364,8.95A51.613,51.613,0,0,1,64.477,87.3,48.4,48.4,0,0,1,54.16,94.774a51.75,51.75,0,0,1-11.7,4.575,49.757,49.757,0,0,1-12.426,1.571A36.553,36.553,0,0,1,15,98.069a24.5,24.5,0,0,1-10.1-8.018,26.424,26.424,0,0,1-4.649-12.4A41.616,41.616,0,0,1,1.689,61.67,54.446,54.446,0,0,1,8.751,45.778,50.655,50.655,0,0,1,34.609,25.462a50.513,50.513,0,0,1,17-2.853q11.609,0,19.021,5.018t9.707,15.545L60,50.747q-.922-6.1-4.293-8.756a13.452,13.452,0,0,0-8.587-2.656,21.764,21.764,0,0,0-8.305,1.621,24.835,24.835,0,0,0-7.289,4.627,31.962,31.962,0,0,0-5.873,7.231A36.206,36.206,0,0,0,21.7,62.26a29.6,29.6,0,0,0-1.115,8.751A15.123,15.123,0,0,0,22.4,78a11.306,11.306,0,0,0,4.873,4.575A17.676,17.676,0,0,0,35.3,84.2a25.494,25.494,0,0,0,5.682-.642,19.128,19.128,0,0,0,5.326-2.063A17.363,17.363,0,0,0,50.785,77.8a20.016,20.016,0,0,0,3.348-5.51H38.293Z" transform="translate(0 39.178)" fill="#fff"/>
        <path id="Path_2" data-name="Path 2" d="M67.037,23.365,47.163,97.547H27.874L47.751,23.365Z" transform="translate(48.303 40.489)" fill="#fff"/>
        <path id="Path_3" data-name="Path 3" d="M65,23.365,70.81,68.521l30.1-45.155h20.956L70.709,97.547H55.359L44.047,23.365Z" transform="translate(76.329 40.489)" fill="#fff"/>
        <path id="Path_4" data-name="Path 4" d="M124.8,39.7H101.879l-3.323,12.4H120.2l-4.373,16.332H94.183l-3.43,12.793h22.923L109.3,97.546h-42.2L86.968,23.365h42.209Z" transform="translate(116.267 40.488)" fill="#fff"/>
        <path id="Path_5" data-name="Path 5" d="M182.785,57.028h38.271q-1.582,5.9-3.364,10.727a48.943,48.943,0,0,1-4.364,8.947,51.721,51.721,0,0,1-8.365,10.284,48.4,48.4,0,0,1-10.314,7.474,51.807,51.807,0,0,1-11.7,4.578,49.789,49.789,0,0,1-12.426,1.571,36.535,36.535,0,0,1-15.028-2.85,24.512,24.512,0,0,1-10.1-8.021,26.4,26.4,0,0,1-4.646-12.394,41.594,41.594,0,0,1,1.432-15.99,54.3,54.3,0,0,1,7.062-15.886A50.65,50.65,0,0,1,175.1,25.148a50.508,50.508,0,0,1,16.993-2.85q11.609,0,19.021,5.015t9.71,15.545l-20.33,7.578q-.922-6.1-4.3-8.756a13.427,13.427,0,0,0-8.584-2.656,21.765,21.765,0,0,0-8.305,1.621,24.654,24.654,0,0,0-7.289,4.627,31.889,31.889,0,0,0-5.873,7.231,36.043,36.043,0,0,0-3.957,9.445,29.423,29.423,0,0,0-1.115,8.753,15.12,15.12,0,0,0,1.815,6.988,11.313,11.313,0,0,0,4.875,4.575,17.669,17.669,0,0,0,8.024,1.623,25.531,25.531,0,0,0,5.682-.642,19.033,19.033,0,0,0,5.324-2.066,17.354,17.354,0,0,0,4.482-3.687,20.053,20.053,0,0,0,3.345-5.509h-15.84Z" transform="translate(243.449 38.639)" fill="#fff"/>
        <path id="Path_6" data-name="Path 6" d="M226.07,39.386H203.147l-3.323,12.4h21.644L217.1,68.114H195.451l-3.43,12.79h22.926L210.57,97.235H168.363l19.876-74.181h42.209Z" transform="translate(291.754 39.949)" fill="#fff"/>
        <path id="Path_7" data-name="Path 7" d="M227.121,39.386l-15.5,57.85H192.337l15.5-57.85H192l4.378-16.332h50.96l-4.375,16.332Z" transform="translate(332.711 39.949)" fill="#fff"/>
        <path id="Path_8" data-name="Path 8" d="M231.567,20.794,225.754,0l-15.1,15.433-15.1,15.43,8.475,2.175-21.664,84.484-31.54-71.656-25.361-6.5L95.854,154.829l-8.994-2.3,5.813,20.792,5.813,20.794,15.1-15.43,15.1-15.433-7.474-1.916L141.1,83.776l31.543,71.656,25.233,6.469L229.257,39.506l8.122,2.082Z" transform="translate(150.519 -0.001)" fill="#f11e1d"/>
      </g>
    </g>
  </g>
</svg>
