<svg xmlns="http://www.w3.org/2000/svg" xmlns:xlink="http://www.w3.org/1999/xlink" width="212.247" height="71.028" viewBox="0 0 212.247 71.028"><defs><clipPath id="a"><rect width="212.247" height="71.028" transform="translate(0 0)" fill="#fff"/></clipPath></defs><g transform="translate(0 0)"><g clip-path="url(#a)"><path d="M15.478,35.317h14q-.579,2.16-1.232,3.924a17.728,17.728,0,0,1-1.6,3.275,18.886,18.886,0,0,1-3.06,3.763,17.711,17.711,0,0,1-3.775,2.736,18.936,18.936,0,0,1-4.282,1.674,18.207,18.207,0,0,1-4.547.575,13.375,13.375,0,0,1-5.5-1.043,8.964,8.964,0,0,1-3.695-2.934,9.669,9.669,0,0,1-1.7-4.536A15.228,15.228,0,0,1,.618,36.9,19.922,19.922,0,0,1,3.2,31.087a18.536,18.536,0,0,1,9.462-7.434,18.483,18.483,0,0,1,6.219-1.044,12.159,12.159,0,0,1,6.96,1.836A8.776,8.776,0,0,1,29.4,30.133L21.956,32.9a4.809,4.809,0,0,0-1.571-3.2,4.922,4.922,0,0,0-3.142-.972,7.964,7.964,0,0,0-3.039.593,9.088,9.088,0,0,0-2.667,1.693,11.7,11.7,0,0,0-2.149,2.646A13.248,13.248,0,0,0,7.94,37.118a10.829,10.829,0,0,0-.408,3.2A5.534,5.534,0,0,0,8.2,42.877,4.137,4.137,0,0,0,9.98,44.551a6.468,6.468,0,0,0,2.936.594,9.329,9.329,0,0,0,2.079-.235,7,7,0,0,0,1.949-.755,6.353,6.353,0,0,0,1.639-1.35,7.324,7.324,0,0,0,1.225-2.016h-5.8Z" fill="#fff"/><path d="M42.2,23.365,34.932,50.509H27.874l7.273-27.144Z" fill="#fff"/><path d="M51.715,23.365,53.84,39.888,64.855,23.365h7.668L53.8,50.509H48.186L44.047,23.365Z" fill="#fff"/><path d="M88.21,29.341H79.822l-1.216,4.536h7.92l-1.6,5.976h-7.92l-1.255,4.681h8.388l-1.6,5.975H67.094l7.272-27.144H89.811Z" fill="#fff"/><path d="M155.965,35.006h14q-.579,2.158-1.231,3.925a17.91,17.91,0,0,1-1.6,3.274,18.925,18.925,0,0,1-3.061,3.763,17.711,17.711,0,0,1-3.774,2.735,18.957,18.957,0,0,1-4.282,1.675,18.219,18.219,0,0,1-4.547.575,13.369,13.369,0,0,1-5.5-1.043,8.969,8.969,0,0,1-3.7-2.935,9.66,9.66,0,0,1-1.7-4.535,15.22,15.22,0,0,1,.524-5.851,19.87,19.87,0,0,1,2.584-5.813,18.534,18.534,0,0,1,9.462-7.435A18.481,18.481,0,0,1,159.37,22.3a12.166,12.166,0,0,1,6.96,1.835,8.782,8.782,0,0,1,3.553,5.688l-7.439,2.773a4.805,4.805,0,0,0-1.572-3.2,4.913,4.913,0,0,0-3.141-.972,7.964,7.964,0,0,0-3.039.593,9.021,9.021,0,0,0-2.667,1.693,11.668,11.668,0,0,0-2.149,2.646,13.188,13.188,0,0,0-1.448,3.456,10.766,10.766,0,0,0-.408,3.2,5.533,5.533,0,0,0,.664,2.557,4.14,4.14,0,0,0,1.784,1.674,6.465,6.465,0,0,0,2.936.594,9.342,9.342,0,0,0,2.079-.235,6.964,6.964,0,0,0,1.948-.756,6.35,6.35,0,0,0,1.64-1.349,7.337,7.337,0,0,0,1.224-2.016h-5.8Z" fill="#fff"/><path d="M189.479,29.03h-8.388l-1.216,4.536h7.92l-1.6,5.976h-7.92l-1.255,4.68h8.389l-1.6,5.976H168.363l7.273-27.144h15.445Z" fill="#fff"/><path d="M204.85,29.03,199.178,50.2h-7.056l5.672-21.168H192l1.6-5.976h18.647l-1.6,5.976Z" fill="#fff"/><path d="M139.81,7.609,137.683,0l-5.526,5.647-5.526,5.646,3.1.8L121.805,43l-11.541-26.22-9.28-2.379L90.151,56.654l-3.291-.843,2.127,7.608,2.127,7.609,5.526-5.646,5.526-5.647-2.735-.7,7.276-28.379,11.542,26.22,9.233,2.367,11.483-44.786,2.972.762Z" fill="#f11e1d"/></g></g></svg>