<svg id="Group_57" data-name="Group 57" xmlns="http://www.w3.org/2000/svg" xmlns:xlink="http://www.w3.org/1999/xlink" width="729" height="428.685" viewBox="0 0 729 428.685">
  <defs>
    <clipPath id="clip-path">
      <rect id="Rectangle_76" data-name="Rectangle 76" width="729" height="428.685" fill="none"/>
    </clipPath>
    <clipPath id="clip-path-2">
      <rect id="Rectangle_75" data-name="Rectangle 75" width="728.999" height="428.685" fill="none"/>
    </clipPath>
    <clipPath id="clip-path-3">
      <rect id="Rectangle_74" data-name="Rectangle 74" width="90.202" height="82.234" fill="none"/>
    </clipPath>
  </defs>
  <g id="Group_56" data-name="Group 56" clip-path="url(#clip-path)">
    <g id="Group_55" data-name="Group 55">
      <g id="Group_54" data-name="Group 54" clip-path="url(#clip-path-2)">
        <path id="Path_353" data-name="Path 353" d="M95.213,420.9s-171.4-107.664-54.262-223.08S314.848-35.592,419.928,10.057s95.629,103.358,211.045,186.9,88.715,149.869,68.044,183.46-24.116,42.2-24.116,42.2Z" transform="translate(0 0)" fill="#f15352"/>
        <path id="Path_354" data-name="Path 354" d="M352.921,185.67c25.381-22.605,44.02-9.121,57.9,5.949,11.064,12.012,12.608,14.675,21.749,27.121a10.919,10.919,0,0,1,2.443,6.191c.257,13.758,7.3,71.932-.528,92.006-9.122,23.4-121.618,34.106-121.618,34.106Z" transform="translate(-126.79 -70.368)" fill="#303c60"/>
        <path id="Path_355" data-name="Path 355" d="M500.56,362.8a1.159,1.159,0,0,1-.058-2.317,10.784,10.784,0,0,0,8.307-4.588c12.613-16.342,5.521-70.9-.658-100.565a1.159,1.159,0,1,1,2.27-.473,397.71,397.71,0,0,1,7.271,53.426c1.447,24.6-.924,41.1-7.047,49.029a13.143,13.143,0,0,1-10.025,5.487l-.059,0" transform="translate(-202.384 -102.905)" fill="#303c60"/>
        <path id="Path_356" data-name="Path 356" d="M309.222,182.531c-48.779,26.968-19.036,118.181-80.9,150.7-17.14,9.009-69.8,54.727-35.3,115.008,22.568,39.431,90.023,30.933,112.231-3.966s3.966-261.742,3.966-261.742" transform="translate(-73.572 -73.971)" fill="#303c60"/>
        <path id="Path_357" data-name="Path 357" d="M177.163,413.171a1.139,1.139,0,0,1-.155-.011,1.158,1.158,0,0,1-1-1.3,66.752,66.752,0,0,1,5.969-18.177A79.74,79.74,0,0,1,211.173,360.8C239.8,342.584,258.8,325.417,281.266,240.79a1.159,1.159,0,1,1,2.241.595c-10.856,40.894-21.62,68.539-33.874,87-11.38,17.144-23.089,25.383-37.215,34.372-29.737,18.924-34.067,49.105-34.107,49.408a1.16,1.16,0,0,1-1.148,1.006" transform="translate(-71.325 -97.231)" fill="#303c60"/>
        <path id="Path_358" data-name="Path 358" d="M178.958,384.956a1.159,1.159,0,0,1-.979-1.778,88.358,88.358,0,0,1,26.777-27.3c40.2-26,46.852-40.942,80.054-126.549a1.159,1.159,0,1,1,2.161.839c-16.6,42.8-26.521,67.882-37.372,85.658-11.654,19.09-24.806,29.856-43.584,42a86.04,86.04,0,0,0-26.077,26.589,1.158,1.158,0,0,1-.981.54" transform="translate(-72.053 -92.637)" fill="#303c60"/>
        <path id="Path_359" data-name="Path 359" d="M383.6,278.237c-16.794,34.881-14.212,66.532-14.212,66.532s1.938,12.273,9.69,14.857,18.732-5.168,18.087-15.5,2.584-35.527,6.459-44.57S383.6,278.237,383.6,278.237" transform="translate(-149.639 -112.756)" fill="#f1ce15"/>
        <path id="Path_360" data-name="Path 360" d="M244.187,668.449c1.057,9.518-1.322,8.725,7.139,10.311s23.529-4.23,23.529-4.23l-16.92-31.463Z" transform="translate(-98.957 -260.605)" fill="#6791c9"/>
        <path id="Path_361" data-name="Path 361" d="M319.4,358.607c-4.758,15.466-40.449,3.569-52.94,7.138s-23.2,55.915-24.984,102.907.595,84.467,5.353,90.415,83.278,8.328,90.416,5.949-59.484-32.121-59.484-32.121-4.164-54.726,1.189-82.683,53.536-64.837,53.536-64.837Z" transform="translate(-97.618 -145.326)" fill="#f1ce15"/>
        <path id="Path_362" data-name="Path 362" d="M398.47,366.609c12.491,19.034,45.207,16.655,56.51,32.121s35.095,100.527,35.095,100.527l24.984-86.251s20.261-3.4,13.681,10.707c-11.7,25.1-16.065,106.064-28.755,117.564-14.112,12.788-28.156,2.38-36.082-20.011-7.666-21.659-26.768-68.406-40.449-86.251s-28.553-46.4-28.553-46.4Z" transform="translate(-160.035 -148.569)" fill="#f1ce15"/>
        <path id="Path_363" data-name="Path 363" d="M279.778,368.934c24.983,29.147,73.759,27.957,84.467,24.388l10.707-3.569s8.328-2.974,15.466,5.354,24.388,60.674,27.363,72.57,7.733,31.526,7.733,31.526-12.762,15.318-12.762,30.784,5.42,15.6,5.42,15.6-15.857-3.554-19.426-13.071-35.691-95.769-35.691-95.769l-88.63,1.785,1.19,97.553s-7.733-7.138-18.44,0-14.276,23.793-12.492,26.172-3.569,2.38-3.569.6S231,517.644,238.139,446.263s20.819-79.113,28.553-79.708a25.121,25.121,0,0,1,13.086,2.379" transform="translate(-95.473 -148.516)" fill="#75a1de"/>
        <path id="Path_364" data-name="Path 364" d="M536.476,665.558a.938.938,0,0,0,.265.057s-.1-.02-.265-.057" transform="translate(-217.408 -269.719)" fill="#6791c9"/>
        <path id="Path_365" data-name="Path 365" d="M510.4,536.534c-5.156,1.586-13.881,19.829-13.881,19.829s-19.829-43.227-25.778-103.11l-7.078,40.625c9.772,26.234,25.107,67.4,27.509,73.8,3.265,8.706,16.43,12.338,18.236,12.741-.494-.167-1.584-.827-2.488-3.439-.52-.475-3.5-1.867-4.056-2.378-4.759-4.362-2.776-14.673.4-26.174s12.295-13.484,7.139-11.9" transform="translate(-187.901 -183.682)" fill="#6791c9"/>
        <path id="Path_366" data-name="Path 366" d="M294.611,456.856l-9.831-44.946c-10.708,15.071-11.9,66.625-7.535,101.921,3.577,28.946,8.929,36.457,12.606,39.475a10.765,10.765,0,0,1,1.683,1.19l-1.19-97.553Z" transform="translate(-111.394 -166.927)" fill="#6791c9"/>
        <path id="Path_367" data-name="Path 367" d="M260.19,411.244c18.243,49.176,9.122,59.09,33.127,116.808,13.407,32.237,39.259,56.51,39.259,56.51a164.241,164.241,0,0,0,46.992,3.568c26.173-1.784,45.334-3.582,45.334-3.582s-27.489-16.642-28.678-27.944-6.353-56.131.389-87.857c5.265-24.775-16.45-49.55-16.45-49.55l-36.285-1.784Z" transform="translate(-105.443 -166.658)" fill="#75a1de"/>
        <g id="Group_53" data-name="Group 53" transform="translate(186.485 315.666)" opacity="0.5">
          <g id="Group_52" data-name="Group 52">
            <g id="Group_51" data-name="Group 51" clip-path="url(#clip-path-3)">
              <path id="Path_368" data-name="Path 368" d="M313.939,535.027c-3.174-11.5,13.483,3.569,40.847,6.345s57.9-1.587,42.831,3.172-56.315-2.38-48.779,12.691c8.867,17.735,19.339,34.9,34.5,45.21,9.914,6.742,33.709,13.087,10.708,9.518s-47.59-30.536-58.3-47.985-21.1-26.386-21.811-28.951" transform="translate(-313.553 -530.757)" fill="#6791c9"/>
            </g>
          </g>
        </g>
        <path id="Path_369" data-name="Path 369" d="M403.643,341.206c.241-11.872,3.136-32.133,6.526-40.042,2.777-6.48-8.7-14.615-15.437-18.709l-5.7-.244q-1.3,2.836-2.441,5.635c-6.013,39.48,11.981,55.794,20.568,59.077a25.969,25.969,0,0,0,11.408,1.254,69.164,69.164,0,0,1-14.929-6.971" transform="translate(-156.18 -114.367)" fill="#f2a211"/>
        <path id="Path_370" data-name="Path 370" d="M380.114,394.659a26.815,26.815,0,0,1-6.332-.767c-4.963-1.21-16.8-5.808-19.558-22.329a.657.657,0,1,1,1.3-.216c2.625,15.749,13.863,20.12,18.573,21.269,7.318,1.784,15.08.133,18.06-3.841,2.39-3.186.956-9.973.942-10.041a.657.657,0,1,1,1.284-.279c.067.3,1.577,7.442-1.173,11.109-2.438,3.249-7.465,5.1-13.092,5.1" transform="translate(-143.547 -150.267)" fill="#f5ce5c"/>
        <path id="Path_371" data-name="Path 371" d="M452.48,273.818c-4.034,21.307-13.354,38.5-29.124,35.256s-32.349-25.746-27.985-46.988,20.685-35.835,36.456-32.6,26.03,15.936,20.654,44.328" transform="translate(-159.938 -92.819)" fill="#f1ce15"/>
        <path id="Path_372" data-name="Path 372" d="M565.188,481.258s-29.149,78.324-30.537,86.454S536.039,581,536.833,581s25.579-42.433,25.579-42.433Z" transform="translate(-216.514 -195.031)" fill="#f1ce15"/>
        <path id="Path_373" data-name="Path 373" d="M587.355,463.229c2.38-7.932-1.322-17.979-1.322-17.979l10.576,1.322Z" transform="translate(-237.491 -180.439)" fill="#f2a211"/>
        <path id="Path_374" data-name="Path 374" d="M585.862,406.525H556.354a2.677,2.677,0,0,1-2.566-3.442l18.628-62.458a2.678,2.678,0,0,1,2.565-1.912H604.49a2.677,2.677,0,0,1,2.565,3.442l-18.628,62.457a2.676,2.676,0,0,1-2.565,1.912" transform="translate(-224.378 -137.265)" fill="#4381db"/>
        <path id="Path_375" data-name="Path 375" d="M592.086,406.525H562.578a2.677,2.677,0,0,1-2.566-3.442l18.629-62.458a2.676,2.676,0,0,1,2.565-1.912h29.508a2.677,2.677,0,0,1,2.566,3.442l-18.628,62.457a2.676,2.676,0,0,1-2.565,1.912" transform="translate(-226.9 -137.265)" fill="#2e5b9a"/>
        <path id="Path_376" data-name="Path 376" d="M574.817,362.81c-3.146,11.335-5.264,20.644-4.729,20.792s3.517-8.921,6.662-20.256,5.263-20.644,4.729-20.792-3.517,8.921-6.662,20.255" transform="translate(-230.996 -138.82)" fill="#9cbeed"/>
        <path id="Path_377" data-name="Path 377" d="M604.641,436.573c.872-10.3,9.794-19.954,13.189-23.035a4.873,4.873,0,0,0,1.6-3.658c-.049-5.134-.277-17.254-1.339-18.67-1.351-1.8-4.731-25.007-6.308-24.106s.451,21.178.451,21.178-3.83-1.8-5.858-2.7-10.364,8.335-10.364,8.335-3.909,9.875,6.778,5.646c12.69-5.024,3.172,8.988-5.288,17.977-6.972,7.406-1.039,9.045-1.039,9.045l5.632-.225Z" transform="translate(-240.765 -148.759)" fill="#f1ce15"/>
        <path id="Path_378" data-name="Path 378" d="M598.356,488.2a10.388,10.388,0,0,1-3.059-.477c-2.745-.855-7.537-3.615-8.805-12.492a.657.657,0,1,1,1.3-.186c1.085,7.589,4.764,10.359,7.66,11.345a7.16,7.16,0,0,0,4.82.159.657.657,0,0,1,1.261-.155.927.927,0,0,1-.209.986,4.34,4.34,0,0,1-2.968.818" transform="translate(-237.674 -192.286)" fill="#cfdac1"/>
        <path id="Path_379" data-name="Path 379" d="M596.37,487.748a18.735,18.735,0,0,1-2.66-.192c-5.1-.74-8.517-3.328-9.376-7.1a.657.657,0,1,1,1.281-.292c.82,3.6,4.091,5.128,6.69,5.777,3.644.911,7.067.349,7.476-.123a.647.647,0,0,1,.89-.241.667.667,0,0,1,.244.9c-.491.87-2.4,1.265-4.546,1.265" transform="translate(-236.796 -194.381)" fill="#cfdac1"/>
        <path id="Path_380" data-name="Path 380" d="M455.928,304.7a6.46,6.46,0,0,1-.971-.074c-5-.767-8.027-7.223-6.882-14.7a17.553,17.553,0,0,1,3.872-8.857c2.092-2.384,4.611-3.488,7.094-3.108,5,.766,8.027,7.222,6.881,14.7-1.071,6.989-5.351,12.039-9.994,12.039m2.162-24.491a6.069,6.069,0,0,0-4.4,2.391,15.218,15.218,0,0,0-3.323,7.679c-.916,5.983,1.346,11.5,4.941,12.055s7.406-4.04,8.323-10.024-1.346-11.5-4.941-12.056a3.965,3.965,0,0,0-.6-.046" transform="translate(-181.485 -112.617)" fill="#fff"/>
        <path id="Path_381" data-name="Path 381" d="M485.907,306.973a3.094,3.094,0,0,1-.475-.036c-3.278-.5-5.055-6.052-4.047-12.635s4.373-11.358,7.641-10.848c1.688.259,3.018,1.8,3.742,4.351a20.1,20.1,0,0,1,.3,8.285c-.959,6.265-4.045,10.882-7.166,10.882m2.638-21.8c-1.931,0-4.556,3.714-5.427,9.4-.9,5.9.634,10.341,2.579,10.638s4.74-3.482,5.644-9.379a18.341,18.341,0,0,0-.256-7.541c-.519-1.821-1.365-2.951-2.322-3.1a1.483,1.483,0,0,0-.218-.016" transform="translate(-194.969 -114.855)" fill="#fff"/>
        <path id="Path_382" data-name="Path 382" d="M424.958,280.689a1.163,1.163,0,0,1-.319-.045l-38.865-11.1a1.159,1.159,0,0,1,.636-2.23l38.865,11.1a1.159,1.159,0,0,1-.318,2.274" transform="translate(-155.995 -108.31)" fill="#fff"/>
        <path id="Path_383" data-name="Path 383" d="M455.669,234.079c-60.147,35.428-63.452,11.633-63.452,11.633l3.569-33.841,35.692,1.982Z" transform="translate(-158.947 -85.861)" fill="#303c60"/>
        <path id="Path_384" data-name="Path 384" d="M390.459,275.6c1.4,5.989-.511,11.555-4.268,12.433s-7.937-3.265-9.336-9.254.511-11.556,4.268-12.434,7.936,3.266,9.335,9.255" transform="translate(-152.536 -107.891)" fill="#f1ce15"/>
        <path id="Path_385" data-name="Path 385" d="M389.885,293.6a2.369,2.369,0,1,1-2.368-2.369,2.368,2.368,0,0,1,2.368,2.369" transform="translate(-156.082 -118.024)" fill="#f5ce5c"/>
        <path id="Path_386" data-name="Path 386" d="M759.57,713.271H157.905a5.514,5.514,0,0,1,0-11.027H759.57a5.514,5.514,0,1,1,0,11.027" transform="translate(-61.757 -284.586)" fill="#2e5b9a"/>
        <path id="Path_387" data-name="Path 387" d="M385.78,700.46s-22.681.287-22.968,2.3.861,2.871,8.9,4.307,98.477,2.009,99.338,1.436,27.275-6.891,27.275-6.891l-63.45-1.148Z" transform="translate(-147.015 -283.863)" fill="#dbe5eb"/>
        <path id="Path_388" data-name="Path 388" d="M422.223,671.819s16.26-7.139,21.019-3.966,18.507,17.715,18.507,17.715Z" transform="translate(-171.107 -270.319)" fill="#f1ce15"/>
        <path id="Path_389" data-name="Path 389" d="M462.222,680.166c-.31.387-.77.549-1.029.356l-33.458-24.908c-1.8-1.342-2.66-3.394-1.793-4.477s3.057-.7,4.762.768l31.639,27.179c.245.21.188.7-.121,1.082" transform="translate(-172.476 -263.623)" fill="#2e5b9a"/>
        <path id="Path_390" data-name="Path 390" d="M334.675,669.963s26.968,10.708,30.141,10.708,20.886-11.9,26.834-10.311,35.031,16.26,34.238,17.449-9.121,3.966-33.71,3.173-64.641-4.362-64.641-4.362Z" transform="translate(-132.735 -271.504)" fill="#f1ce15"/>
        <path id="Path_391" data-name="Path 391" d="M830.037,687.168H720.121a2.965,2.965,0,0,1-2.956-2.957v-17.34a2.966,2.966,0,0,1,2.956-2.958H830.037a7.443,7.443,0,0,1,7.421,7.421v8.413a7.443,7.443,0,0,1-7.421,7.421" transform="translate(-290.633 -269.052)" fill="#f2a211"/>
        <path id="Path_392" data-name="Path 392" d="M820.756,670.53H716.4a8,8,0,0,0-1.16,4.139v7.105a8,8,0,0,0,1.16,4.139H820.756a6.756,6.756,0,0,0,6.737-6.736v-1.912a6.756,6.756,0,0,0-6.737-6.736" transform="translate(-289.852 -271.734)" fill="#f2e5de"/>
        <path id="Path_393" data-name="Path 393" d="M842.444,654.327H758.858a2,2,0,0,1-2-2V642.256a2,2,0,0,1,2-2h83.585a5.023,5.023,0,0,1,5.008,5.008v4.05a5.023,5.023,0,0,1-5.008,5.008" transform="translate(-306.72 -259.467)" fill="#7bcee8"/>
        <path id="Path_394" data-name="Path 394" d="M834.875,644.263H756.286a4.158,4.158,0,0,0-.874,2.5v4.3a4.156,4.156,0,0,0,.874,2.5h78.589c2.79,0,5.073-1.834,5.073-4.075v-1.156c0-2.242-2.283-4.075-5.073-4.075" transform="translate(-306.133 -261.089)" fill="#f2e5de"/>
        <path id="Path_395" data-name="Path 395" d="M861.588,129.693H772.442c-2.842,0-4.321-2.325-3.287-5.168l13.48-37.036a8.2,8.2,0,0,1,7.049-5.168H878.83c2.842,0,4.321,2.325,3.287,5.168l-13.48,37.036a8.2,8.2,0,0,1-7.049,5.168" transform="translate(-311.568 -33.361)" fill="#9ec8ff"/>
        <path id="Path_396" data-name="Path 396" d="M862.877,128.458H782.6c-2.462,0-3.742-2.015-2.847-4.476l11.163-30.669a7.1,7.1,0,0,1,6.105-4.475H877.3c2.462,0,3.743,2.013,2.847,4.475l-11.162,30.669a7.107,7.107,0,0,1-6.106,4.476" transform="translate(-315.88 -36.002)" fill="#fff"/>
        <path id="Path_397" data-name="Path 397" d="M821.6,158.351c-7.393,19.523-18.774,25.552-18.774,25.552s8.094-11.2,6.922-16.652a12.013,12.013,0,0,0-5.505-7.753Z" transform="translate(-325.348 -64.172)" fill="#9ec8ff"/>
        <path id="Path_398" data-name="Path 398" d="M894.559,105.029H842.808a1.047,1.047,0,0,1-.981-1.543l.026-.071a2.45,2.45,0,0,1,2.1-1.543h51.751a1.046,1.046,0,0,1,.981,1.543l-.026.071a2.449,2.449,0,0,1-2.1,1.543" transform="translate(-341.112 -41.283)" fill="#9ec8ff"/>
        <path id="Path_399" data-name="Path 399" d="M890.518,116.132H838.767a1.046,1.046,0,0,1-.981-1.543l.026-.072a2.45,2.45,0,0,1,2.1-1.543h51.751a1.046,1.046,0,0,1,.981,1.543l-.026.072a2.448,2.448,0,0,1-2.1,1.543" transform="translate(-339.475 -45.783)" fill="#9ec8ff"/>
        <path id="Path_400" data-name="Path 400" d="M885.95,128.684H834.2a1.047,1.047,0,0,1-.982-1.543l.027-.072a2.448,2.448,0,0,1,2.1-1.543H887.1a1.046,1.046,0,0,1,.981,1.543l-.026.072a2.449,2.449,0,0,1-2.1,1.543" transform="translate(-337.623 -50.87)" fill="#9ec8ff"/>
        <path id="Path_401" data-name="Path 401" d="M818.09,109.167c-2.048,5.629-7.437,10.192-12.035,10.192s-6.665-4.563-4.617-10.192,7.438-10.193,12.035-10.193,6.665,4.563,4.616,10.193" transform="translate(-324.464 -40.109)" fill="#9ec8ff"/>
        <path id="Path_402" data-name="Path 402" d="M835.783,319.145h-4.418a1.142,1.142,0,0,1-1.073-1.689l1.324-3.638a2.672,2.672,0,0,1,2.3-1.69h4.418a1.143,1.143,0,0,1,1.075,1.69l-1.324,3.638a2.671,2.671,0,0,1-2.3,1.689" transform="translate(-336.433 -126.491)" fill="#9ec8ff"/>
        <path id="Path_403" data-name="Path 403" d="M859.618,319.145H855.2a1.143,1.143,0,0,1-1.074-1.689l1.324-3.638a2.673,2.673,0,0,1,2.3-1.69h4.418a1.144,1.144,0,0,1,1.075,1.69l-1.325,3.638a2.672,2.672,0,0,1-2.3,1.689" transform="translate(-346.092 -126.491)" fill="#9ec8ff"/>
        <path id="Path_404" data-name="Path 404" d="M883.452,319.145h-4.418a1.143,1.143,0,0,1-1.074-1.689l1.324-3.638a2.672,2.672,0,0,1,2.3-1.69h4.418a1.143,1.143,0,0,1,1.074,1.69l-1.324,3.638a2.671,2.671,0,0,1-2.3,1.689" transform="translate(-355.751 -126.491)" fill="#9ec8ff"/>
        <path id="Path_405" data-name="Path 405" d="M681.951,244.583H592.8c-2.842,0-4.321-2.325-3.287-5.168L603,202.379a8.2,8.2,0,0,1,7.048-5.168h89.146c2.842,0,4.322,2.325,3.287,5.168L689,239.415a8.2,8.2,0,0,1-7.048,5.168" transform="translate(-238.77 -79.92)" fill="#9ec8ff"/>
        <path id="Path_406" data-name="Path 406" d="M683.24,243.348H602.961c-2.462,0-3.743-2.014-2.848-4.475L611.276,208.2a7.106,7.106,0,0,1,6.106-4.476h80.28c2.462,0,3.743,2.014,2.847,4.476l-11.162,30.669a7.107,7.107,0,0,1-6.106,4.475" transform="translate(-243.082 -82.561)" fill="#fff"/>
        <path id="Path_407" data-name="Path 407" d="M600.829,273.241c-6.819,19.523.174,25.553.174,25.553s.056-11.2,5.2-16.652a33.713,33.713,0,0,1,11.147-7.752Z" transform="translate(-242.277 -110.732)" fill="#9ec8ff"/>
        <path id="Path_408" data-name="Path 408" d="M673.011,224.264H629.342a.964.964,0,0,1-.9-1.421l.115-.316a2.257,2.257,0,0,1,1.938-1.421h43.669a.964.964,0,0,1,.9,1.421l-.115.316a2.257,2.257,0,0,1-1.938,1.421" transform="translate(-254.639 -89.604)" fill="#9ec8ff"/>
        <path id="Path_409" data-name="Path 409" d="M668.969,235.367H625.3a.964.964,0,0,1-.9-1.421l.115-.316a2.258,2.258,0,0,1,1.939-1.421h43.668a.964.964,0,0,1,.9,1.421l-.115.316a2.257,2.257,0,0,1-1.939,1.421" transform="translate(-253.002 -94.103)" fill="#9ec8ff"/>
        <path id="Path_410" data-name="Path 410" d="M664.4,247.918H620.732a.964.964,0,0,1-.9-1.421l.115-.316a2.257,2.257,0,0,1,1.938-1.421h43.669a.964.964,0,0,1,.9,1.421l-.115.316a2.257,2.257,0,0,1-1.938,1.421" transform="translate(-251.15 -99.189)" fill="#9ec8ff"/>
        <path id="Path_411" data-name="Path 411" d="M821.731,345.189H735.69c-1.54,0-2.342-.639-1.781-1.421l.227-.315a5.286,5.286,0,0,1,3.819-1.421H824c1.539,0,2.341.639,1.781,1.421l-.227.315a5.287,5.287,0,0,1-3.82,1.421" transform="translate(-297.346 -138.609)" fill="#9ec8ff"/>
        <path id="Path_412" data-name="Path 412" d="M813.769,363.532H727.728c-1.54,0-2.341-.639-1.781-1.421l.227-.315a5.287,5.287,0,0,1,3.819-1.421h86.041c1.54,0,2.342.64,1.781,1.421l-.226.315a5.287,5.287,0,0,1-3.819,1.421" transform="translate(-294.119 -146.042)" fill="#9ec8ff"/>
        <path id="Path_413" data-name="Path 413" d="M722.182,238.568h-6.317c-2.842,0-4.321-2.325-3.288-5.167l4.7-12.92a8.206,8.206,0,0,1,7.048-5.168h6.316c2.843,0,4.322,2.326,3.288,5.168l-4.7,12.92a8.2,8.2,0,0,1-7.048,5.167" transform="translate(-288.64 -87.256)" fill="#9ec8ff"/>
        <path id="Path_414" data-name="Path 414" d="M1049.446,496.581c11.466-62.917,8.956-85.421-21.757-136.776S994.044,212.879,982.468,240.91s-10.019,98.422,26.264,132.581,41.167,49.455,43.321,63.36-5.181,56.638-5.181,56.638Z" transform="translate(-395.552 -95.584)" fill="#9cd499"/>
        <path id="Path_415" data-name="Path 415" d="M1055.19,456.074c.018-.241.035-.481.052-.721-.673-5.162-4.319-31.709-9.361-42.184-5.6-11.628-30.146-31.869-37.037-57.277s-17.812-45.1-24.978-61.154c-9.461-21.191-4.289-49.364,3.533-58.515a1.922,1.922,0,0,0-.572-.262l-2.6,1.57a18.393,18.393,0,0,0-1.762,3.419c-11.576,28.03-10.019,98.421,26.263,132.581s41.167,49.455,43.322,63.36c.581,3.75.471,9.6,0,16.142Z" transform="translate(-395.552 -95.623)" fill="#74b570"/>
        <path id="Path_416" data-name="Path 416" d="M1064.558,429.353c8.532-73.938,5.688-99.532-10.807-158.682s91-193.944,87.588-170.625-14.788,81.331-44.362,117.731-31.85,65.975-26.162,97.257-1.138,104.081-1.138,104.081l-3.413,13.081Z" transform="translate(-426.337 -39.457)" fill="#9cd499"/>
        <path id="Path_417" data-name="Path 417" d="M1072.052,404.272h-.028a.713.713,0,0,1-.686-.74c.008-.228.855-23.021.43-41.73-.425-18.727-5.5-50.816-8.586-61.838-2.811-10.037-6.347-43.7,10.813-78.457,8.548-17.314,15.37-28.26,24.812-43.411,9.333-14.974,20.948-33.611,39.374-66.44a.714.714,0,0,1,1.244.7c-18.443,32.857-30.067,51.509-39.407,66.5-9.42,15.116-16.227,26.037-24.743,43.288-16.961,34.357-13.488,67.55-10.719,77.44,3.106,11.091,8.212,43.365,8.64,62.19.427,18.754-.423,41.588-.431,41.817a.713.713,0,0,1-.713.686" transform="translate(-429.905 -45.101)" fill="#74b570"/>
        <path id="Path_418" data-name="Path 418" d="M1064.549,553.011c5.118-49.481,5.975-25.079-15.283-92.31-24.331-76.948,62.489-145.26,76.708-117.391s30.713,115.457,24.456,112.613-47.775-84.175-48.913-80.763-56.306,31.85-54.031,60.857,23.319,75.076,23.319,75.076l-.569,42.487Z" transform="translate(-423.485 -136.553)" fill="#9cd499"/>
        <path id="Path_419" data-name="Path 419" d="M1069.752,552.518a.694.694,0,0,1-.071,0l-5.687-.569a.714.714,0,0,1-.639-.784c.592-5.717,1.137-10.531,1.577-14.4,2.383-21.007,2.383-21.007-4.138-39-2.946-8.133-6.982-19.27-12.691-37.326a92,92,0,0,1-3.278-41.592,106.614,106.614,0,0,1,12.677-36.414c11.261-20.126,28.983-37.411,45.15-44.038,11.234-4.605,19.791-3.106,23.475,4.113,6.036,11.83,13.252,36.051,19.3,64.792,3.492,16.587,8.625,45.473,5.71,48.523a1.261,1.261,0,0,1-1.487.272c-3.413-1.552-14.715-21.494-30.307-49.5-7.819-14.039-15.885-28.527-18.063-31.025-.878.975-3.093,2.5-7.684,5.616-15.454,10.481-47.609,32.292-45.884,54.294,2.239,28.547,23.047,74.375,23.256,74.835a.716.716,0,0,1,.065.306l-.569,41.2a.713.713,0,0,1-.713.7m-4.9-1.922,4.2.421.556-40.258c-1.311-2.9-21.12-47.184-23.314-75.169C1044.5,412.759,1077.12,390.634,1092.8,380c3.724-2.526,7.242-4.912,7.568-5.57a.83.83,0,0,1,.711-.57c1.379-.129,4.106,4.362,19.516,32.036,11.058,19.86,26.172,47,29.576,48.854.262-.426,1.035-2.759-.469-14.768-1.088-8.684-3.084-20.109-5.617-32.169-6.037-28.727-13.225-52.9-19.225-64.665-3.3-6.476-11.2-7.73-21.663-3.441-28.351,11.62-71.788,63.177-53.728,120.293,5.7,18.027,9.729,29.149,12.672,37.27,6.634,18.312,6.634,18.312,4.214,39.651-.442,3.9-.941,8.289-1.5,13.672" transform="translate(-422.999 -136.068)" fill="#74b570"/>
        <path id="Path_420" data-name="Path 420" d="M1082,653.932h-25.81c-1.775,0-3.361-1.009-3.527-2.265l-8.673-65.2c-.4-3.008,1.589-5.542,4.43-5.542h41.349c2.842,0,4.831,2.534,4.43,5.542l-8.673,65.2c-.167,1.256-1.753,2.265-3.527,2.265" transform="translate(-423.058 -235.422)" fill="#7bcee8"/>
        <path id="Path_421" data-name="Path 421" d="M1098.066,656.4h-3.7c-1.807,0-3.262-1.046-3.231-2.349l1.305-56.319a5.258,5.258,0,0,1,5.1-5.158h5.606a4.508,4.508,0,0,1,4.435,5.158l-5.987,56.319c-.138,1.3-1.728,2.349-3.535,2.349" transform="translate(-442.186 -240.144)" fill="#a2dff2"/>
        <path id="Path_422" data-name="Path 422" d="M1054.137,533.89l.456-.795a163.35,163.35,0,0,1-3.962-17.666,90.061,90.061,0,0,0,3.506,18.461" transform="translate(-425.771 -208.879)" fill="#74b570"/>
        <path id="Path_423" data-name="Path 423" d="M1054.3,439.047a53.124,53.124,0,0,0-3.262,12.878c7.618-25.01,50.044-47.589,52.8-51.4l.489-.958c-15.934-4.45-41.415,17.944-50.027,39.477" transform="translate(-425.937 -161.696)" fill="#74b570"/>
        <path id="Path_424" data-name="Path 424" d="M1153.485,461.578a.715.715,0,0,1-.693-.543l-7.708-31.363c-6.019-24.576-13.512-55.161-21.921-68.776-1.387-2.245-7.442-5.28-16.02-4.675-11.593.821-33.939,8.83-53.346,53.25a.714.714,0,0,1-1.309-.572c19.708-45.108,42.639-53.258,54.555-54.1,9.267-.652,15.719,2.733,17.334,5.349,8.528,13.806,15.735,43.229,22.093,69.186l7.709,31.361a.715.715,0,0,1-.523.864.741.741,0,0,1-.171.02" transform="translate(-426.499 -143.749)" fill="#74b570"/>
        <path id="Path_425" data-name="Path 425" d="M1181.2,428.244a.653.653,0,0,1-.084,0,.714.714,0,0,1-.626-.792c.03-.257,2.918-26.036-3.859-53.145a.714.714,0,0,1,1.385-.346c6.843,27.371,3.922,53.4,3.892,53.657a.714.714,0,0,1-.708.631" transform="translate(-476.824 -151.327)" fill="#74b570"/>
        <path id="Path_426" data-name="Path 426" d="M1170.448,408.2a.694.694,0,0,1-.085-.005.713.713,0,0,1-.625-.792c.028-.236,2.767-23.84.859-43.343a.714.714,0,0,1,1.421-.139c1.923,19.659-.835,43.412-.864,43.65a.713.713,0,0,1-.707.63" transform="translate(-474.037 -147.218)" fill="#74b570"/>
        <path id="Path_427" data-name="Path 427" d="M1124.828,202.947a.714.714,0,0,1-.309-1.357c.2-.1,20.61-10.077,32.411-31.994a.713.713,0,1,1,1.256.677c-12.029,22.34-32.841,32.5-33.05,32.6a.7.7,0,0,1-.309.07" transform="translate(-455.55 -68.577)" fill="#74b570"/>
        <path id="Path_428" data-name="Path 428" d="M1099.484,254.9a.714.714,0,0,1-.143-1.413c.167-.034,16.88-3.615,36.731-19.665a.713.713,0,1,1,.9,1.109c-20.143,16.286-37.172,19.92-37.341,19.955a.754.754,0,0,1-.145.014" transform="translate(-445.28 -94.693)" fill="#74b570"/>
        <path id="Path_429" data-name="Path 429" d="M1078.227,301.313c-.293,0-.467-.01-.518-.014a.714.714,0,0,1,.105-1.424c.115.009,11.634.636,30.1-13.21a.715.715,0,0,1,.858,1.143c-16.953,12.714-28.047,13.5-30.54,13.5" transform="translate(-436.476 -116.114)" fill="#74b570"/>
      </g>
    </g>
  </g>
</svg>
