<svg xmlns="http://www.w3.org/2000/svg" xmlns:xlink="http://www.w3.org/1999/xlink" width="900.271" height="715.159" viewBox="0 0 900.271 715.159"><defs><clipPath id="a"><rect width="900.271" height="715.159" fill="none"/></clipPath><clipPath id="b"><rect width="900.271" height="715.159" fill="#f15352"/></clipPath><clipPath id="c"><rect width="139.59" height="49.544" fill="none"/></clipPath><clipPath id="d"><rect width="113.294" height="47.431" fill="none"/></clipPath><clipPath id="e"><rect width="126.782" height="45.93" fill="none"/></clipPath><clipPath id="f"><path d="M340.123,278.069,337,322.176a4.191,4.191,0,0,0,6.625,3.7,27.29,27.29,0,0,1,17.777-5.129c16.462,1.165,28.732,17.31,27.406,36.06s-15.747,33.009-32.209,31.844a27.288,27.288,0,0,1-16.878-7.577,4.189,4.189,0,0,0-7.078,2.726l-3.12,44.106a17.3,17.3,0,0,0,16.035,18.475l149.832,10.6a17.3,17.3,0,0,0,18.475-16.035L524.465,291.1a17.3,17.3,0,0,0-16.035-18.475l-45.571-3.222a4.185,4.185,0,0,0-3.566,6.795,27.582,27.582,0,0,1,6.345,19.4c-1.165,16.462-17.309,28.732-36.06,27.406s-33.009-15.747-31.844-32.207a27.564,27.564,0,0,1,9.011-18.309,4.185,4.185,0,0,0-2.575-7.23L358.6,262.034c-.415-.03-.829-.044-1.238-.044a17.3,17.3,0,0,0-17.237,16.079" transform="translate(-329.484 -261.99)" fill="none"/></clipPath><clipPath id="g"><rect width="186.766" height="186.767" fill="none"/></clipPath><clipPath id="i"><path d="M197.48,129.7,178.746,278.738a17.3,17.3,0,0,0,15.007,19.32l45.536,5.724a4.186,4.186,0,0,0,3.908-6.623,27.64,27.64,0,0,1-5.434-19.943c2.057-16.375,18.845-27.747,37.5-25.4s32.1,17.519,30.043,33.893a27.654,27.654,0,0,1-10.2,17.979,4.184,4.184,0,0,0,2.146,7.382l45.538,5.724a17.3,17.3,0,0,0,19.32-15.005l5.63-44.791A4.184,4.184,0,0,0,361.228,253a27.457,27.457,0,0,1-19.131,4.877c-16.375-2.059-27.747-18.847-25.4-37.5s17.519-32.1,33.892-30.045a27.459,27.459,0,0,1,17.33,9.46,4.184,4.184,0,0,0,7.292-2.256l5.631-44.791a17.3,17.3,0,0,0-15.007-19.321L216.8,114.7A17.285,17.285,0,0,0,197.48,129.7" transform="translate(-178.609 -114.562)" fill="none"/></clipPath><clipPath id="j"><rect width="186.748" height="186.748" fill="none"/></clipPath><clipPath id="k"><rect width="900.271" height="715.159" fill="#f2a211"/></clipPath><clipPath id="l"><path d="M345.691,137.1l-.462,44.452a4.184,4.184,0,0,1-6.885,3.166,27.376,27.376,0,0,0-17.63-6.81c-16.5-.17-30.038,14.928-30.233,33.726s13.024,34.173,29.527,34.345a27.38,27.38,0,0,0,17.768-6.443,4.184,4.184,0,0,1,6.817,3.308l-.462,44.454a17.3,17.3,0,0,0,17.117,17.476l45.951.478a4.184,4.184,0,0,1,2.969,7.1,27.674,27.674,0,0,0-8.128,19.085c-.17,16.5,14.928,30.038,33.724,30.233s34.175-13.024,34.346-29.527a27.667,27.667,0,0,0-7.731-19.248,4.186,4.186,0,0,1,3.117-7.034l45.951.476a17.3,17.3,0,0,0,17.476-17.118l1.559-150.2a17.3,17.3,0,0,0-17.119-17.476l-150.2-1.559h-.186A17.3,17.3,0,0,0,345.691,137.1" transform="translate(-290.479 -119.983)" fill="none"/></clipPath><clipPath id="n"><path d="M268.473,226.306c-18.768,1.053-33.235,15.263-32.312,31.739a27.6,27.6,0,0,0,8.845,18.543,4.186,4.186,0,0,1-2.665,7.206l-45.724,2.564a17.3,17.3,0,0,0-16.3,18.239l8.406,149.97a17.3,17.3,0,0,0,18.24,16.3l149.97-8.406a17.3,17.3,0,0,0,16.3-18.24l-2.516-44.888a4.185,4.185,0,0,1,6.739-3.554,27.446,27.446,0,0,0,18.567,6.035c16.476-.923,28.98-16.888,27.928-35.656s-15.263-33.235-31.739-32.31a27.435,27.435,0,0,0-17.776,8.071,4.185,4.185,0,0,1-7.093-2.779l-2.516-44.89a17.3,17.3,0,0,0-18.24-16.3l-45.723,2.562a4.185,4.185,0,0,1-3.453-6.863,27.6,27.6,0,0,0,6.716-19.417c-.886-15.829-15.653-27.99-33.453-27.99q-1.1,0-2.2.062" transform="translate(-180.287 -226.244)" fill="none"/></clipPath><clipPath id="o"><rect width="283.416" height="276.385" fill="none"/></clipPath></defs><g clip-path="url(#a)"><g clip-path="url(#b)"><g transform="translate(17.822 94.009)" opacity="0.45"><g clip-path="url(#c)"><path d="M12.665,116.354c.024-.024.2,0,.227,0H115.135c16.085,0,21.056-.515,37.111-.048.182-9.9-2.578-19.241-7.317-24.242-3.891-4.107-10.59-6.352-16.058-4.905-6.924,1.831-11.623,6.466-16.113,9.906-1.589-13.645-7.226-26.081-13.285-28.8C89.043,63.6,78.142,71,73.248,78.2a44.767,44.767,0,0,0-7.062,20.094c-6.549-7.237-21.191-12.758-26.468-1.28-2.071,4.508-1.9,9.684-1.693,14.641a30.429,30.429,0,0,0-25.36,4.7" transform="translate(-12.666 -66.81)" fill="#d2def9"/></g></g><g transform="translate(657.463 7.694)" opacity="0.45"><g clip-path="url(#d)"><path d="M580.537,52.9c-1.973-8.011-20.587-19.7-30.53-12.644-3.059-15.247-5.913-24.76-15.886-32.274S507.5,10.3,504.827,30.854c-2.668-8.462-16.266-19.847-27.19-10.237-10.109,8.892-11.118,23.8-10.067,32.282Z" transform="translate(-467.243 -5.468)" fill="#d2def9"/></g></g><g transform="translate(773.488 115.748)" opacity="0.45"><g clip-path="url(#e)"><path d="M676.481,128.188c-3.076-7.589-8.892-11.652-15.768-12.418-8.671-.964-17.468,4.017-17.468,4.017s3.257-12.518-1.165-22.38c-3.017-6.725-7.823-13.04-14.5-14.7-6.91-1.717-14.24,1.652-19.387,6.981s-8.474,12.394-11.429,19.442c-1.527-5-3.56-10.6-8.07-12.459-4.665-1.922-10.079,1.392-12.523,6.146s-2.572,10.5-2.242,15.943c-5.42-3.252-12.331-4.21-17.752-.96a14.445,14.445,0,0,0-6.48,10.385Z" transform="translate(-549.699 -82.259)" fill="#d2def9"/></g></g><path d="M225.329,286.292c-28.4-9.73-53.21-28.78-71.685-52.447s-39.3-75.62-35.714-119.44c81.86,24.275,115.086,100.3,120.042,146.418" transform="translate(47.845 46.576)" fill="#d2def9"/><path d="M117.813,114.405s13.48,105.486,108.111,163.74" transform="translate(47.963 46.576)" fill="none" stroke="#fff" stroke-miterlimit="10" stroke-width="1.5"/><path d="M117.813,114.405S173.66,214.458,234.865,275.318" transform="translate(47.963 46.576)" fill="none" stroke="#fff" stroke-miterlimit="10" stroke-width="1.5"/><path d="M117.813,114.405s82.448,65.469,120.878,155.088" transform="translate(47.963 46.576)" fill="none" stroke="#fff" stroke-miterlimit="10" stroke-width="1.5"/><path d="M257.194,387.43c-32.372,12.051-68.054,12.439-101.283,3.623S67.487,348.02,39.944,303.229c79.075-26.914,173.906,9.651,210.736,50.213" transform="translate(16.262 119.69)" fill="#d2def9"/><path d="M39.944,300.558s86.18,91.17,212.17,75.841" transform="translate(16.262 122.361)" fill="none" stroke="#fff" stroke-linejoin="round" stroke-width="1.5"/><path d="M39.944,300.558s120.461,54.036,218.226,66.389" transform="translate(16.262 122.361)" fill="none" stroke="#fff" stroke-linejoin="round" stroke-width="1.5"/><path d="M39.944,300.558s120.1.777,217.576,57.91" transform="translate(16.262 122.361)" fill="none" stroke="#fff" stroke-linejoin="round" stroke-width="1.5"/><path d="M234.663,267.867c-27.4-20.36-46.913-49.733-57.474-82.023S165.316,89.388,187.64,42.466c64.84,51.087,85.522,149.373,71.7,201.722" transform="translate(69.144 17.288)" fill="#e9f1ff"/><path d="M183.989,42.466s-29.243,120.48,51.223,216.694" transform="translate(72.795 17.288)" fill="none" stroke="#fff" stroke-linejoin="round" stroke-width="1.5"/><path d="M182.49,42.466S202.471,171.4,244.805,259.1" transform="translate(74.294 17.288)" fill="none" stroke="#fff" stroke-linejoin="round" stroke-width="1.5"/><path d="M182.49,42.466s63.945,99.992,69,211.533" transform="translate(74.294 17.288)" fill="none" stroke="#fff" stroke-linejoin="round" stroke-width="1.5"/><path d="M394.728,233.907c27.633-5.256,53.168-19.632,73.441-39.132s46.476-64.921,48.965-106.037C437.994,100.395,397.095,166.5,386.381,208.61" transform="translate(157.3 36.126)" fill="#d2def9"/><path d="M514.6,88.738s-26.5,96.045-121.987,137.52" transform="translate(159.837 36.126)" fill="none" stroke="#fff" stroke-linejoin="round" stroke-width="1.5"/><path d="M516.889,88.738s-65.068,85.385-129.9,133.712" transform="translate(157.547 36.126)" fill="none" stroke="#fff" stroke-linejoin="round" stroke-width="1.5"/><path d="M517.693,88.738s-85.151,49.784-132.681,127.8" transform="translate(156.743 36.126)" fill="none" stroke="#fff" stroke-linejoin="round" stroke-width="1.5"/><path d="M447.283,390.415c40.421,7.679,82.88,1.821,120.933-13.83s98.08-63.392,123.536-118c-113.941-26.616-205.07,41.38-242.25,92.928" transform="translate(182.094 102.842)" fill="#d2def9"/><path d="M690.4,256.857S602.8,373.321,450.607,378.5" transform="translate(183.448 104.57)" fill="none" stroke="#fff" stroke-linejoin="round" stroke-width="1.5"/><path d="M691.242,256.857s-119.9,80.108-242.706,102.683" transform="translate(182.605 104.57)" fill="none" stroke="#fff" stroke-linejoin="round" stroke-width="1.5"/><path d="M693.1,256.857S550.519,278.892,443.973,359.54" transform="translate(180.747 104.57)" fill="none" stroke="#fff" stroke-linejoin="round" stroke-width="1.5"/><path d="M372.893,251.181c34.794-14.967,63.376-41.684,83.044-73.844s37.509-101.1,25.418-157.469C398.276,58.427,350.788,159.246,352.312,219.3" transform="translate(143.416 8.089)" fill="#e9f1ff"/><path d="M476.058,19.869s.732,137.558-110.769,220.836" transform="translate(148.714 8.089)" fill="none" stroke="#fff" stroke-linejoin="round" stroke-width="1.5"/><path d="M479.518,19.869S424.943,153.953,356.79,237.8" transform="translate(145.254 8.089)" fill="none" stroke="#fff" stroke-linejoin="round" stroke-width="1.5"/><path d="M481.227,19.869S386.6,111.455,352.592,230.584" transform="translate(143.545 8.089)" fill="none" stroke="#fff" stroke-linejoin="round" stroke-width="1.5"/><path d="M238.324,367.936c-18.841,2.932-50.9,7.309-68.622-4.521-9.8-6.542-11.6-18.636-15.428-29.278-6.554-18.211-20.02-28.92-37.879-32.041-7.142-1.248-14.7-4.463-18.131-11.295-5.1-10.165,1.174-23.237-2.921-33.9-2.2-5.726-6.972-9.779-10.911-14.333-9.522-11.015-11.883-27.333-11.883-27.333a44.717,44.717,0,0,0,24.4-.379c8.27-2.579,17.247-4.19,25.95-2.813,6.8,1.078,11.9,4.636,16.384,10.04,5.282,6.359,9.716,11.158,17.345,13.8C168.406,239.961,197.6,230.1,200.8,247c.872,4.6-.211,9.581,1.911,13.887,3.846,7.8,13.144,3.837,19.483,5.825,9.746,3.058,20.4,10.067,24.581,19.214,9.965,21.817,9.5,51.883,3.892,75.582" transform="translate(29.536 86.121)" fill="#e9f1ff"/><path d="M73.381,214.388c31.777,34.348,79.873,47.241,110.857,82.4,9.3,10.549,16.736,22.783,25.5,33.835s19.314,21.2,32.223,25.548" transform="translate(29.874 87.28)" fill="none" stroke="#fff" stroke-linejoin="round" stroke-width="1.5"/><path d="M89.072,274.99c16.608,1.788,41.819,1.4,66.846-3.331,0,0-6.118-32.221-11.285-44.544" transform="translate(36.262 92.462)" fill="none" stroke="#fff" stroke-linejoin="round" stroke-width="1.5"/><path d="M89.457,253.691c18.266,1.327,33.586.236,54.884-.626" transform="translate(36.419 103.026)" fill="none" stroke="#fff" stroke-linejoin="round" stroke-width="1.5"/><path d="M87.585,242.242a206.014,206.014,0,0,0,29.642-1.39" transform="translate(35.657 98.054)" fill="none" stroke="#fff" stroke-linejoin="round" stroke-width="1.5"/><path d="M76.723,227.059c.111.224,4.981.8,16.159.63" transform="translate(31.235 92.439)" fill="none" stroke="#fff" stroke-linejoin="round" stroke-width="1.5"/><path d="M107.968,248.514c.12.075-7.273-22.805-13.054-35.842" transform="translate(38.641 86.581)" fill="none" stroke="#fff" stroke-linejoin="round" stroke-width="1.5"/><path d="M129.573,265.937c-.107-.069-7.331-36.256-14.448-51.391" transform="translate(46.869 87.344)" fill="none" stroke="#fff" stroke-linejoin="round" stroke-width="1.5"/><path d="M115.2,280.745c.557.305,31.837,2.395,57.52-3.048" transform="translate(46.901 113.054)" fill="none" stroke="#fff" stroke-linejoin="round" stroke-width="1.5"/><path d="M152.909,288.077s-3.189-38.7-8.2-58.464" transform="translate(58.914 93.478)" fill="none" stroke="#fff" stroke-linejoin="round" stroke-width="1.5"/><path d="M183.47,247.443c3.64,23.846,4.141,71.19,4.141,71.19s-40.3,5.46-56.982.886" transform="translate(53.181 100.737)" fill="none" stroke="#fff" stroke-linejoin="round" stroke-width="1.5"/><path d="M183.864,333.6s1.437-53.591-1.718-81.639" transform="translate(74.154 102.577)" fill="none" stroke="#fff" stroke-linejoin="round" stroke-width="1.5"/><path d="M132.728,307.63s32.471,4.576,59.85-4.857" transform="translate(54.035 123.263)" fill="none" stroke="#fff" stroke-linejoin="round" stroke-width="1.5"/><path d="M188.109,335.994s9.346-42.3,2.489-79.443" transform="translate(76.581 104.445)" fill="none" stroke="#fff" stroke-linejoin="round" stroke-width="1.5"/><path d="M417.246,223.746c8.572-22.144,22.5-44.041,13.936-68.493-4.733-13.52-19.2-19.214-30.26-26.507-18.933-12.481-27.4-31.488-26-53.943.56-8.982-1.006-18.959-7.839-24.816-10.168-8.714-26.805-4.348-37.818-11.966-5.915-4.092-9.208-10.894-13.3-16.805C306.054,6.92,288.115,0,288.115,0a59.27,59.27,0,0,1-7.206,29.525c-5.234,9.4-9.563,19.9-10.407,30.8-.66,8.521,1.98,15.594,6.891,22.384,5.782,7.992,10.02,14.568,10.912,24.485,1.375,15.308-17.969,48.294.409,56.382,5,2.2,10.977,2.123,15.294,5.768,7.822,6.606.725,16.909,1.231,25.1.778,12.591,5.809,27.268,15.072,34.612,22.1,17.517,56.486,24.425,85.047,23.5" transform="translate(110.084 0)" fill="#e9f1ff"/><path d="M283.01,1.065c30.32,47.107,31.663,108.7,63.133,155.044,9.44,13.905,21.316,25.975,31.477,39.363s18.793,28.712,20.168,45.462" transform="translate(115.217 0.434)" fill="none" stroke="#fff" stroke-linejoin="round" stroke-width="1.5"/><path d="M329.825,95.973S294.8,80.542,282.2,71.209" transform="translate(114.886 28.99)" fill="none" stroke="#fff" stroke-linejoin="round" stroke-width="1.5"/><path d="M327.745,30.3c-3.559,22.5-9.053,40.83-15.95,66.472" transform="translate(126.936 12.335)" fill="none" stroke="#fff" stroke-linejoin="round" stroke-width="1.5"/><path d="M313.189,25.127a274.044,274.044,0,0,1-9.813,35.639" transform="translate(123.508 10.23)" fill="none" stroke="#fff" stroke-linejoin="round" stroke-width="1.5"/><path d="M297.611,8.27c.224.19-.473,6.245-3.767,19.773" transform="translate(119.628 3.367)" fill="none" stroke="#fff" stroke-linejoin="round" stroke-width="1.5"/><path d="M312.3,51.529c.049.165-23.969-14.495-37.222-24.75" transform="translate(111.987 10.902)" fill="none" stroke="#fff" stroke-linejoin="round" stroke-width="1.5"/><path d="M326.154,82.085c-.048-.146-39.28-17.9-54.551-30.306" transform="translate(110.573 21.08)" fill="none" stroke="#fff" stroke-linejoin="round" stroke-width="1.5"/><path d="M352.611,44.369c-3.414,13.006-9.968,46.673-29.482,80.239" transform="translate(131.55 18.063)" fill="none" stroke="#fff" stroke-linejoin="round" stroke-width="1.5"/><path d="M344.906,115.913s-43.217-13.483-64.347-24.472" transform="translate(114.219 37.227)" fill="none" stroke="#fff" stroke-linejoin="round" stroke-width="1.5"/><path d="M388.192,164.8s-61.468-11.568-92.554-22.365" transform="translate(120.358 57.987)" fill="none" stroke="#fff" stroke-linejoin="round" stroke-width="1.5"/><path d="M377.6,95.922s-3.8,40.554-22.148,71.449" transform="translate(144.708 39.051)" fill="none" stroke="#fff" stroke-linejoin="round" stroke-width="1.5"/><path d="M479.777,365.9c24.444-4.722,51.654-4.549,68.605-25.777,9.371-11.737,6.373-27.755,6.688-41.645.539-23.772,12.708-41.88,33.433-53.145,8.291-4.506,16.282-11.454,17.677-20.787,2.077-13.887-11.071-26.233-10.439-40.259.341-7.534,4.548-14.248,7.517-21.18,7.18-16.766,3.332-36.555,3.332-36.555A62.164,62.164,0,0,1,576.349,136.6c-11.265.585-23,2.589-33.16,7.915-7.936,4.161-12.747,10.445-16.044,18.591-3.879,9.588-7.358,17.016-15.671,23.333-12.831,9.75-52.909,10.943-49.854,31.774.83,5.668,4.228,10.932,3.4,16.8-1.51,10.629-14.616,10.065-21.608,15.076-10.752,7.707-20.987,20.351-22.351,32.669-3.25,29.386,9.771,63.783,26.5,88.64" transform="translate(171.214 51.523)" fill="#e9f1ff"/><path d="M594.979,127.168c-24.954,53.175-78.915,88.678-102.553,142.45-7.092,16.133-11.2,33.406-17.43,49.891S459.961,352.2,445.848,362.75" transform="translate(181.51 51.772)" fill="none" stroke="#fff" stroke-linejoin="round" stroke-width="1.5"/><path d="M577.457,196.732c-19.736,9.194-50.982,19.581-83.8,24.892,0,0-5.8-39.7-4.534-56.1" transform="translate(199.055 67.386)" fill="none" stroke="#fff" stroke-linejoin="round" stroke-width="1.5"/><path d="M567.869,179.09c-21.972,9.376-41.311,14.7-67.931,22.863" transform="translate(203.531 72.91)" fill="none" stroke="#fff" stroke-linejoin="round" stroke-width="1.5"/><path d="M556.43,164.857a287.254,287.254,0,0,1-37.124,11.137" transform="translate(211.416 67.115)" fill="none" stroke="#fff" stroke-linejoin="round" stroke-width="1.5"/><path d="M558.648,143.183c-.044.305-5.81,3.059-19.663,7.669" transform="translate(219.427 58.292)" fill="none" stroke="#fff" stroke-linejoin="round" stroke-width="1.5"/><path d="M523.715,181.3c-.117.137-.477-29.365,1.249-46.85" transform="translate(213.165 54.735)" fill="none" stroke="#fff" stroke-linejoin="round" stroke-width="1.5"/><path d="M504.073,210.625c.1-.124-5.978-44.864-3.469-65.339" transform="translate(203.555 59.148)" fill="none" stroke="#fff" stroke-linejoin="round" stroke-width="1.5"/><path d="M548.269,220.476c-.56.591-38.262,16.435-72.182,21.209" transform="translate(193.821 89.758)" fill="none" stroke="#fff" stroke-linejoin="round" stroke-width="1.5"/><path d="M484.3,246.129s-12.1-45.9-14.108-70.792" transform="translate(191.419 71.382)" fill="none" stroke="#fff" stroke-linejoin="round" stroke-width="1.5"/><path d="M448.636,205.937c5.388,29,24.38,83.691,24.38,83.691s51.946-11.033,70.623-23.464" transform="translate(182.645 83.84)" fill="none" stroke="#fff" stroke-linejoin="round" stroke-width="1.5"/><path d="M464.986,311.812s-23.967-61.046-31.694-94.673" transform="translate(176.399 88.4)" fill="none" stroke="#fff" stroke-linejoin="round" stroke-width="1.5"/><path d="M538.627,258.338s-38.14,19.217-75.805,20.129" transform="translate(188.421 105.173)" fill="none" stroke="#fff" stroke-linejoin="round" stroke-width="1.5"/><path d="M461.63,316.077s-29.043-44.655-35.971-90.338" transform="translate(173.291 91.901)" fill="none" stroke="#fff" stroke-linejoin="round" stroke-width="1.5"/><path d="M395.757,225.705c3.338,6.988,16.846,36.451,20.184,43.44-10.835,3.461-20.765,7.95-31.39,12.011-4.5,6.055,5.558-5.914,6.025-12.478" transform="translate(156.085 91.887)" fill="#f777ba"/><path d="M420.711,267.739l-6.131,2.116a22.966,22.966,0,0,0-1.082-2.975,27.4,27.4,0,0,0-3.843,1.679,5.035,5.035,0,0,0-.673,1.755,3.074,3.074,0,0,1-1.954,2.149l-24.373,8.412c-3.008,1.038-4.753-2.477-2.15-5.349,2.358-2.6,7.5-8.248,7.759-8.4,10.026-2.391,25.252-9.681,27.187-14.129,3.241,1.752,5.271,14.659,5.26,14.746" transform="translate(154.392 102.997)" fill="#0b0b3a"/><path d="M400.876,168.938c.546,15.927-1.136,47.874,1.029,61.426,1.362,8.526,16.716,50.919,16.716,50.919l-20.244,10.506s-17.355-26.81-27.242-58.506c-6.407-20.538-6.9-43.158-6.9-61.761" transform="translate(148.283 68.777)" fill="#f777ba"/><path d="M427.846,202.319c5.692,5.253,29.167,27.6,34.857,32.856-8.778,7.233-16.334,15.083-24.695,22.8-1.933,7.29,2.968-7.556.967-13.822" transform="translate(174.181 82.367)" fill="#f777ba"/><path d="M467.273,234.658l-4.909,4.24a22.731,22.731,0,0,0-2.108-2.361,27.2,27.2,0,0,0-2.945,2.984,5.028,5.028,0,0,0,.027,1.879,3.079,3.079,0,0,1-1.019,2.72L436.8,260.972c-2.409,2.08-5.333-.538-3.981-4.169,1.224-3.294,3.909-10.444,4.088-10.683,8.424-5.939,19.86-18.357,20.006-23.206,3.66.425,10.334,11.658,10.355,11.744" transform="translate(176.069 90.751)" fill="#0b0b3a"/><path d="M424.317,147.6s-1.234,46.92,5.219,58.867c7.611,14.094,32.31,35.227,32.31,35.227l-6.654,24.73S420.508,247.069,402.4,223.8c-13.743-17.668-14.392-73.474-14.392-73.474" transform="translate(157.965 60.091)" fill="#f777ba"/><path d="M433.347,119.731c24.439,18.86,22.439,94.326,22.439,94.326s-27.171,7.135-49.356,7.135a347.762,347.762,0,0,1-45.313-3.521c1.349-64.9,12.868-81.769,19.352-92.872" transform="translate(147.015 48.744)" fill="#18277a"/><path d="M383.376,46.509S388.89,62.568,388,66.31s-13.055,2.7-16.156,2.545c-.263-8.174,2.465-19.642,2.465-19.642" transform="translate(151.376 18.934)" fill="#212237"/><path d="M381.359,63.1l1.3,8.942s6.5,4.193,11.969,1.981c5.757-2.33,5.448-5.474,5.448-5.474l-6.906-16.4" transform="translate(155.256 21.234)" fill="#f1ce15"/><path d="M374.874,50.012c-.1,11.527,1.959,20.555,9.564,19.97,8.015-.618,13.971-7.209,11.1-16.2-3.018-9.446-20-10.427-20.663-3.772" transform="translate(152.614 18.617)" fill="#f1ce15"/><path d="M381.868,65.755c3.906-.642,8.645-2.706,10.712-8.025" transform="translate(155.463 23.503)" fill="none" stroke="#cc328a" stroke-linejoin="round" stroke-width="0.75"/><path d="M388.685,51.112a0,0,0,0,0,0-.008,0,0,0,1,0,0,.008" transform="translate(158.237 20.805)" fill="#ff855a"/><path d="M388.65,51.123l-.009.1a.052.052,0,0,0,.052.053.055.055,0,0,0,.053-.053l.008-.1a.051.051,0,0,0-.053-.052.054.054,0,0,0-.052.052" transform="translate(158.221 20.792)" fill="#ff855a"/><path d="M387.832,51.9c-6.519,1.725-11.132,1.486-15.426-.1.691-3.9,3.073-9.463,10.338-9.623,5.023-4.611,10.93-2.994,12.559-2.465a16.226,16.226,0,0,1,9.311,7.794c3.681,6.2,4.454,15.6,4.385,20.813a70.511,70.511,0,0,1-14.077,2.572c.16.006-2.236-15.591-7.089-18.986" transform="translate(151.611 15.876)" fill="#212237"/><path d="M386.082,54.241a2.019,2.019,0,0,1,1.033-1.822c1.607-.967,3.132.937,3.3,2.674a4.789,4.789,0,0,1-.653,2.986c-.736,1.295-1.954,1.811-2.937.622" transform="translate(157.173 21.234)" fill="#f1ce15"/><path d="M379.4,53.136s-1.337,4.4-.81,5.367,3.013.377,3.013.377" transform="translate(154.077 21.632)" fill="none" stroke="#cc328a" stroke-linejoin="round" stroke-width="0.5"/><path d="M379.042,58.961l6.962-1a4.47,4.47,0,0,1-4.138,4.11c-2.754.2-2.824-3.11-2.824-3.11" transform="translate(154.313 23.597)" fill="#fff"/><path d="M376.939,52.884c-.017.115-.038.234-.048.349-.007.08-.01.16-.016.239a3.9,3.9,0,0,0-.015.48.593.593,0,0,0,.162.393.557.557,0,0,0,.785,0,.592.592,0,0,0,.163-.393,4.212,4.212,0,0,0-.025-.48c-.017-.2-.041-.393-.073-.588-.017-.038-.032-.077-.049-.115a.372.372,0,0,0-.124-.136.462.462,0,0,0-.294-.1.548.548,0,0,0-.243.066.477.477,0,0,0-.222.288" transform="translate(153.423 21.385)" fill="#00276f"/><path d="M378.9,51.415a1.813,1.813,0,0,0-2.6.431" transform="translate(153.199 20.779)" fill="none" stroke="#00276f" stroke-linecap="round" stroke-linejoin="round" stroke-width="0.5"/><path d="M382.689,52.711c-.007.079-.017.159-.018.239s0,.153,0,.229a3.708,3.708,0,0,0,.011.469.614.614,0,0,0,.163.393.557.557,0,0,0,.785,0,.571.571,0,0,0,.162-.393,5.44,5.44,0,0,0-.069-.6c-.011-.077-.021-.156-.034-.234s-.032-.153-.049-.229a.484.484,0,0,0-.222-.29.509.509,0,0,0-.308-.058.461.461,0,0,0-.277.134l-.076.1a.475.475,0,0,0-.066.243" transform="translate(155.789 21.264)" fill="#00276f"/><path d="M381.967,50.9s1.475-1.033,3.733.409" transform="translate(155.504 20.576)" fill="none" stroke="#00276f" stroke-linecap="round" stroke-linejoin="round" stroke-width="0.5"/><path d="M399.238,98.219c-22.114,30.719-67.274,58.33-67.274,58.33l-9.318-11.8s33.84-28.362,54.172-60.924" transform="translate(131.353 34.127)" fill="#f1ce15"/><path d="M330.974,124.9c-4.143,3.611-18.032,12.157-17.73,13.237s5.233-1.866,5.308-.941-7.168,5.949-6.563,6.96c.82,1.371,7.933-4.159,7.933-4.159s-7.458,6.433-6.388,7.438c.757.712,6.7-3.943,9.212-5.447-2.495,1.964-6.122,5.61-5.32,6.333s4.914-2.367,8.209-4.569c-1.914,1.559-5.227,4.579-4.518,5.281s11.3-6.129,20.99-12.936" transform="translate(127 50.847)" fill="#f1ce15"/><path d="M317.906,133.841s5.381.129,7.645-.993" transform="translate(129.423 54.084)" fill="none" stroke="#cc328a" stroke-linejoin="round" stroke-width="0.75"/><path d="M390.236,66.438c-9.657-1.736-18.276,5.168-22.044,11.17A181.48,181.48,0,0,0,356.46,99.222l22.74,13.7,12.938-40.688" transform="translate(145.119 26.937)" fill="#ff9357"/><path d="M385.792,67.318c4.5.826,5.593,2.437,8.783,1.427A44.466,44.466,0,0,0,404.692,64c-3.757.255,12.29,3.172,24.558,16.124,4.127,14.188,4.6,28.3,5.8,65.777-30.553,9.879-57.126,1.582-57.126,1.582s-3.467-16.341-7.446-28.446c-5.527-11.149-3.128-23.645,3.048-33.857.2-6.205,12.27-17.866,12.27-17.866" transform="translate(149.564 26.057)" fill="#ff9357"/><path d="M396.6,61.261l-10.424,8.831,6.666,7.1L399.758,66.7Z" transform="translate(157.219 24.94)" fill="#fff"/><path d="M388.508,68.877l-5.9-4.629-2.143,2.972,2.828,8.544Z" transform="translate(154.892 26.156)" fill="#fff"/><path d="M367.384,99.453c-.369-7.235,3.909-18.46,3.909-18.46" transform="translate(149.557 32.973)" fill="none" stroke="#a52f2d" stroke-miterlimit="10" stroke-width="0.75"/><path d="M496.937,458.376c-.435,0-.871-.016-1.311-.046L345.794,447.736a18.377,18.377,0,0,1-17.013-19.6l3.12-44.106a5.243,5.243,0,0,1,8.855-3.418,26.184,26.184,0,0,0,16.228,7.292q.907.063,1.805.063c15.19,0,28.049-13.586,29.276-30.928,1.282-18.142-10.574-33.813-26.427-34.934q-.905-.063-1.8-.063a26.441,26.441,0,0,0-15.3,5,5.252,5.252,0,0,1-3.046.982,5.308,5.308,0,0,1-3.872-1.687,5.151,5.151,0,0,1-1.368-3.924l3.118-44.107a18.409,18.409,0,0,1,18.29-17.06c.435,0,.875.016,1.314.048l45.571,3.222a5.24,5.24,0,0,1,3.219,9.055,26.662,26.662,0,0,0-8.678,17.611c-1.121,15.854,12.726,29.8,30.865,31.08.9.063,1.8.094,2.7.094,17.026,0,31.187-11.65,32.238-26.523a26.682,26.682,0,0,0-6.112-18.657,5.24,5.24,0,0,1,4.067-8.526c.129,0,.262,0,.394.014l45.572,3.222a18.374,18.374,0,0,1,17.012,19.6L515.228,441.317a18.407,18.407,0,0,1-18.29,17.06Z" transform="translate(133.832 106.354)" fill="#f11e1d"/><path d="M357.971,262.6c.409,0,.823.014,1.238.044l45.571,3.222a4.186,4.186,0,0,1,2.575,7.23,27.576,27.576,0,0,0-9.011,18.309c-1.164,16.462,13.093,30.882,31.844,32.207q1.4.1,2.771.1c17.545,0,32.182-11.859,33.289-27.5a27.582,27.582,0,0,0-6.345-19.4,4.184,4.184,0,0,1,3.248-6.806c.1,0,.211,0,.318.011l45.571,3.222a17.3,17.3,0,0,1,16.035,18.475L514.481,441.546a17.3,17.3,0,0,1-17.238,16.079c-.409,0-.823-.014-1.237-.044L346.174,446.987a17.3,17.3,0,0,1-16.035-18.475l3.12-44.107a4.188,4.188,0,0,1,7.078-2.724,27.288,27.288,0,0,0,16.88,7.577q.943.065,1.88.066c15.665,0,29.051-13.877,30.327-31.91,1.325-18.751-10.945-34.9-27.406-36.06q-.941-.065-1.873-.066a27.456,27.456,0,0,0-15.9,5.194,4.188,4.188,0,0,1-6.625-3.7l3.12-44.106A17.3,17.3,0,0,1,357.971,262.6m0-2.111h0a19.465,19.465,0,0,0-19.344,18.041l-3.118,44.107a6.2,6.2,0,0,0,1.648,4.718,6.376,6.376,0,0,0,4.645,2.025,6.306,6.306,0,0,0,3.656-1.178,25.392,25.392,0,0,1,14.686-4.805c.571,0,1.152.021,1.724.061,15.274,1.081,26.691,16.245,25.449,33.806-1.188,16.794-13.584,29.949-28.221,29.949-.574,0-1.157-.021-1.732-.062a25.117,25.117,0,0,1-15.578-7.006,6.3,6.3,0,0,0-10.634,4.11l-3.118,44.107a19.409,19.409,0,0,0,17.991,20.73l149.832,10.6c.46.032.927.049,1.386.049A19.466,19.466,0,0,0,516.586,441.7l10.6-149.832a19.433,19.433,0,0,0-17.993-20.73l-45.572-3.222c-.156-.011-.312-.016-.466-.016a6.295,6.295,0,0,0-4.888,10.245,25.282,25.282,0,0,1,5.879,17.918c-1.012,14.323-14.71,25.542-31.183,25.542-.868,0-1.75-.031-2.621-.093A34.226,34.226,0,0,1,408.3,311.7a25.9,25.9,0,0,1-7.85-20.147,25.284,25.284,0,0,1,8.343-16.912,6.3,6.3,0,0,0-3.863-10.881l-45.571-3.222c-.46-.032-.927-.049-1.387-.049" transform="translate(133.526 106.049)" fill="#fff"/></g><g transform="translate(463.621 368.649)"><g clip-path="url(#f)"><g transform="translate(51.934 137.061)" opacity="0.19" style="mix-blend-mode:screen;isolation:isolate"><g clip-path="url(#g)"><path d="M542.492,461.3a85.635,85.635,0,1,1-74.2-95.715A85.634,85.634,0,0,1,542.492,461.3Z" transform="translate(-364.153 -357.157)" fill="none" stroke="#91abe5" stroke-miterlimit="10" stroke-width="11"/><circle cx="54.109" cy="54.109" r="54.109" transform="matrix(0.803, -0.596, 0.596, 0.803, 16.131, 80.189)" fill="none" stroke="#91abe5" stroke-miterlimit="10" stroke-width="11"/><path d="M469.049,437.515a28.322,28.322,0,1,1-24.539-31.656A28.322,28.322,0,0,1,469.049,437.515Z" transform="translate(-347.569 -340.573)" fill="none" stroke="#91abe5" stroke-miterlimit="10" stroke-width="11"/></g></g></g></g><g clip-path="url(#a)"><path d="M345.269,318.289a18.441,18.441,0,0,1-2.31-.146l-45.537-5.724a5.24,5.24,0,0,1-2.683-9.246,26.2,26.2,0,0,0,2.826-38.67,35.284,35.284,0,0,0-22.131-11.337,37.978,37.978,0,0,0-4.735-.3c-16.23,0-29.808,10.655-31.584,24.785a26.732,26.732,0,0,0,5.237,19.187,5.124,5.124,0,0,1,.457,5.446,5.207,5.207,0,0,1-4.659,2.893,5.485,5.485,0,0,1-.687-.045l-45.537-5.723A18.354,18.354,0,0,1,178,278.911l18.733-149.034a18.341,18.341,0,0,1,20.5-15.92L366.27,132.69a18.353,18.353,0,0,1,15.921,20.5L376.56,197.98a5.216,5.216,0,0,1-5.239,4.605,5.1,5.1,0,0,1-3.895-1.788,26.267,26.267,0,0,0-16.666-9.107,25.654,25.654,0,0,0-3.181-.2c-14.735,0-27.43,12.609-29.532,29.33-2.268,18.043,8.717,34.336,24.488,36.319a25.454,25.454,0,0,0,3.169.2,26.782,26.782,0,0,0,15.231-4.9,5.167,5.167,0,0,1,2.939-.93,5.294,5.294,0,0,1,3.96,1.8,5.164,5.164,0,0,1,1.255,4.117l-5.63,44.791a18.376,18.376,0,0,1-18.19,16.068" transform="translate(72.408 46.334)" fill="#f11e1d"/><path d="M215.231,115.172a17.59,17.59,0,0,1,2.18.138l149.033,18.731a17.3,17.3,0,0,1,15.005,19.322l-5.63,44.791a4.194,4.194,0,0,1-4.193,3.682,4.059,4.059,0,0,1-3.1-1.425,27.46,27.46,0,0,0-17.33-9.461,26.627,26.627,0,0,0-3.314-.208c-15.06,0-28.394,12.867-30.579,30.253-2.344,18.651,9.029,35.44,25.4,37.5a26.435,26.435,0,0,0,3.3.208,27.82,27.82,0,0,0,15.83-5.085,4.075,4.075,0,0,1,2.339-.743,4.208,4.208,0,0,1,4.168,4.734l-5.63,44.79a17.3,17.3,0,0,1-17.141,15.143,17.579,17.579,0,0,1-2.18-.137l-45.537-5.724a4.185,4.185,0,0,1-2.146-7.383,27.657,27.657,0,0,0,10.2-17.977c2.057-16.376-11.393-31.55-30.045-33.893a39.163,39.163,0,0,0-4.867-.307c-16.621,0-30.754,10.776-32.631,25.709a27.646,27.646,0,0,0,5.436,19.943,4.186,4.186,0,0,1-3.353,6.657,4.416,4.416,0,0,1-.554-.035l-45.537-5.721a17.3,17.3,0,0,1-15.005-19.321l18.733-149.033a17.3,17.3,0,0,1,17.141-15.145m0-2.111h0A19.429,19.429,0,0,0,196,130.053L177.261,279.086A19.434,19.434,0,0,0,194.1,300.764l45.537,5.724a6.967,6.967,0,0,0,.818.049,6.295,6.295,0,0,0,5.052-10.019,25.682,25.682,0,0,1-5.039-18.43c1.71-13.6,14.837-23.86,30.536-23.86a36.96,36.96,0,0,1,4.6.29,34.236,34.236,0,0,1,21.471,10.991,25.147,25.147,0,0,1-2.7,37.153,6.294,6.294,0,0,0,3.219,11.109l45.537,5.724a19.734,19.734,0,0,0,2.443.153,19.429,19.429,0,0,0,19.235-16.988l5.631-44.794a6.206,6.206,0,0,0-1.511-4.945,6.343,6.343,0,0,0-4.752-2.161,6.2,6.2,0,0,0-3.537,1.117,25.742,25.742,0,0,1-14.631,4.711,24.425,24.425,0,0,1-3.038-.191c-15.194-1.909-25.768-17.673-23.572-35.141,2.035-16.193,14.281-28.4,28.484-28.4a24.907,24.907,0,0,1,3.051.19,25.223,25.223,0,0,1,16,8.755,6.153,6.153,0,0,0,4.691,2.149,6.337,6.337,0,0,0,6.287-5.53l5.63-44.791a19.43,19.43,0,0,0-16.836-21.677L217.673,113.216a19.736,19.736,0,0,0-2.443-.155" transform="translate(72.103 46.029)" fill="#fff"/></g><g transform="translate(251.322 161.202)"><g clip-path="url(#i)"><g transform="translate(-75.07 -76.462)" opacity="0.25"><g clip-path="url(#j)"><path d="M302.027,151.357a85.635,85.635,0,1,1-85.635-85.635A85.635,85.635,0,0,1,302.027,151.357Z" transform="translate(-123.019 -57.983)" fill="none" stroke="#fff" stroke-miterlimit="10" stroke-width="11"/><path d="M265.576,142.188a58.351,58.351,0,1,1-58.35-58.349A58.352,58.352,0,0,1,265.576,142.188Z" transform="translate(-115.644 -50.607)" fill="none" stroke="#fff" stroke-miterlimit="10" stroke-width="11"/><path d="M228.133,134.775a28.322,28.322,0,1,1-28.322-28.322A28.322,28.322,0,0,1,228.133,134.775Z" transform="translate(-106.436 -41.401)" fill="none" stroke="#fff" stroke-miterlimit="10" stroke-width="11"/></g></g></g></g><g clip-path="url(#k)"><path d="M436.06,363.029c-19.349-.2-34.946-14.243-34.768-31.3a28.851,28.851,0,0,1,8.427-19.811,3.131,3.131,0,0,0-2.226-5.3l-45.948-.477a18.353,18.353,0,0,1-18.163-18.543l.462-44.454a3.059,3.059,0,0,0-.892-2.234,3.217,3.217,0,0,0-2.268-.955,3.017,3.017,0,0,0-1.932.708,28.358,28.358,0,0,1-18.162,6.684H320.3c-17.057-.177-30.771-16.062-30.569-35.411.2-19.172,14.111-34.77,31.01-34.77h.288a28.321,28.321,0,0,1,18.308,7.065,3,3,0,0,0,1.978.749,3.176,3.176,0,0,0,3.163-3.124l.462-44.455a18.412,18.412,0,0,1,18.349-18.163l150.392,1.56a18.35,18.35,0,0,1,18.162,18.543l-1.558,150.2A18.413,18.413,0,0,1,511.939,307.7l-46.146-.478a3.115,3.115,0,0,0-2.913,1.893,3.033,3.033,0,0,0,.578,3.366,28.829,28.829,0,0,1,8.014,19.98c-.174,16.859-15.871,30.575-34.992,30.575Z" transform="translate(117.952 48.541)" fill="#f2a211"/><path d="M363.6,120.593h.181l150.2,1.559a17.3,17.3,0,0,1,17.117,17.476l-1.559,150.2a17.3,17.3,0,0,1-17.293,17.119h-.182l-45.951-.477h-.048a4.186,4.186,0,0,0-3.069,7.034,27.669,27.669,0,0,1,7.729,19.249c-.17,16.382-15.324,29.528-33.934,29.528h-.409c-18.8-.2-33.9-13.732-33.726-30.233a27.674,27.674,0,0,1,8.128-19.086,4.184,4.184,0,0,0-2.969-7.1l-45.949-.477a17.3,17.3,0,0,1-17.119-17.476l.463-44.455a4.211,4.211,0,0,0-4.217-4.255,4.06,4.06,0,0,0-2.6.948,27.4,27.4,0,0,1-17.49,6.443h-.276c-16.5-.17-29.722-15.547-29.525-34.345.191-18.691,13.579-33.726,29.952-33.726h.279a27.372,27.372,0,0,1,17.631,6.81,4.056,4.056,0,0,0,2.666,1,4.211,4.211,0,0,0,4.219-4.169l.462-44.454A17.3,17.3,0,0,1,363.6,120.593m0-2.111a19.473,19.473,0,0,0-19.405,19.207l-.462,44.455a2.089,2.089,0,0,1-2.108,2.08,1.942,1.942,0,0,1-1.292-.494,29.36,29.36,0,0,0-18.983-7.32h-.3c-17.475,0-31.86,16.066-32.062,35.815-.207,19.93,13.974,36.294,31.612,36.477h.3a29.408,29.408,0,0,0,18.834-6.924,1.939,1.939,0,0,1,1.259-.467,2.158,2.158,0,0,1,1.518.642,2.026,2.026,0,0,1,.588,1.482l-.463,44.453a19.407,19.407,0,0,0,19.207,19.61l45.949.477a2.046,2.046,0,0,1,1.9,1.286,2.022,2.022,0,0,1-.425,2.227,29.9,29.9,0,0,0-8.725,20.535c-.183,17.64,15.882,32.158,35.812,32.366h.433c19.7,0,35.866-14.184,36.045-31.616a29.882,29.882,0,0,0-8.3-20.713,2.025,2.025,0,0,1-.383-2.226,2.049,2.049,0,0,1,1.909-1.257l45.975.477h.206a19.471,19.471,0,0,0,19.4-19.207l1.559-150.2a19.429,19.429,0,0,0-19.2-19.61l-150.2-1.559Z" transform="translate(117.648 48.235)" fill="#fff"/></g><g transform="translate(408.737 168.83)"><g clip-path="url(#l)"><path d="M295.136,141.989a4.048,4.048,0,1,1,3.318-4.665,4.048,4.048,0,0,1-3.318,4.665" transform="translate(-290.506 -114.297)" fill="#fff"/><path d="M321.886,137.477a4.048,4.048,0,1,1,3.318-4.665,4.048,4.048,0,0,1-3.318,4.665" transform="translate(-279.616 -116.134)" fill="#fff"/><path d="M348.636,132.965a4.048,4.048,0,1,1,3.318-4.665,4.048,4.048,0,0,1-3.318,4.665" transform="translate(-268.725 -117.971)" fill="#fff"/><path d="M375.386,128.453a4.048,4.048,0,1,1,3.318-4.665,4.048,4.048,0,0,1-3.318,4.665" transform="translate(-257.835 -119.808)" fill="#fff"/><path d="M402.136,123.94a4.048,4.048,0,1,1,3.317-4.665,4.048,4.048,0,0,1-3.317,4.665" transform="translate(-246.945 -121.645)" fill="#fff"/><path d="M428.886,119.428a4.048,4.048,0,1,1,3.317-4.665,4.048,4.048,0,0,1-3.317,4.665" transform="translate(-236.055 -123.482)" fill="#fff"/><path d="M455.635,114.916a4.048,4.048,0,1,1,3.318-4.665,4.048,4.048,0,0,1-3.318,4.665" transform="translate(-225.165 -125.319)" fill="#fff"/><path d="M298.84,163.951a4.048,4.048,0,1,1,3.318-4.665,4.048,4.048,0,0,1-3.318,4.665" transform="translate(-288.998 -105.356)" fill="#fff"/><path d="M325.59,159.439a4.048,4.048,0,1,1,3.318-4.665,4.048,4.048,0,0,1-3.318,4.665" transform="translate(-278.108 -107.193)" fill="#fff"/><path d="M352.34,154.927a4.048,4.048,0,1,1,3.318-4.665,4.048,4.048,0,0,1-3.318,4.665" transform="translate(-267.218 -109.03)" fill="#fff"/><path d="M379.09,150.415a4.048,4.048,0,1,1,3.318-4.665,4.049,4.049,0,0,1-3.318,4.665" transform="translate(-256.327 -110.867)" fill="#fff"/><path d="M405.84,145.9a4.048,4.048,0,1,1,3.318-4.665,4.049,4.049,0,0,1-3.318,4.665" transform="translate(-245.437 -112.704)" fill="#fff"/><path d="M432.59,141.39a4.048,4.048,0,1,1,3.318-4.665,4.049,4.049,0,0,1-3.318,4.665" transform="translate(-234.547 -114.541)" fill="#fff"/><path d="M459.34,136.878a4.048,4.048,0,1,1,3.318-4.665,4.049,4.049,0,0,1-3.318,4.665" transform="translate(-223.656 -116.378)" fill="#fff"/><path d="M302.545,185.913a4.048,4.048,0,1,1,3.318-4.665,4.048,4.048,0,0,1-3.318,4.665" transform="translate(-287.49 -96.415)" fill="#fff"/><path d="M329.3,181.4a4.048,4.048,0,1,1,3.318-4.665A4.049,4.049,0,0,1,329.3,181.4" transform="translate(-276.599 -98.252)" fill="#fff"/><path d="M356.045,176.889a4.048,4.048,0,1,1,3.318-4.665,4.049,4.049,0,0,1-3.318,4.665" transform="translate(-265.709 -100.089)" fill="#fff"/><path d="M382.8,172.376a4.048,4.048,0,1,1,3.318-4.665,4.049,4.049,0,0,1-3.318,4.665" transform="translate(-254.819 -101.926)" fill="#fff"/><path d="M409.545,167.864a4.048,4.048,0,1,1,3.318-4.665,4.049,4.049,0,0,1-3.318,4.665" transform="translate(-243.929 -103.763)" fill="#fff"/><path d="M436.294,163.352a4.048,4.048,0,1,1,3.318-4.665,4.049,4.049,0,0,1-3.318,4.665" transform="translate(-233.039 -105.6)" fill="#fff"/><path d="M463.044,158.84a4.048,4.048,0,1,1,3.318-4.665,4.049,4.049,0,0,1-3.318,4.665" transform="translate(-222.148 -107.437)" fill="#fff"/><path d="M306.249,207.875a4.048,4.048,0,1,1,3.318-4.665,4.049,4.049,0,0,1-3.318,4.665" transform="translate(-285.982 -87.474)" fill="#fff"/><path d="M333,203.362a4.047,4.047,0,1,1,3.318-4.663A4.047,4.047,0,0,1,333,203.362" transform="translate(-275.091 -89.311)" fill="#fff"/><path d="M359.749,198.85a4.048,4.048,0,1,1,3.318-4.665,4.049,4.049,0,0,1-3.318,4.665" transform="translate(-264.201 -91.148)" fill="#fff"/><path d="M386.5,194.338a4.048,4.048,0,1,1,3.318-4.665,4.048,4.048,0,0,1-3.318,4.665" transform="translate(-253.311 -92.985)" fill="#fff"/><path d="M413.249,189.826a4.048,4.048,0,1,1,3.318-4.665,4.049,4.049,0,0,1-3.318,4.665" transform="translate(-242.421 -94.822)" fill="#fff"/><path d="M440,185.314a4.048,4.048,0,1,1,3.318-4.665A4.049,4.049,0,0,1,440,185.314" transform="translate(-231.53 -96.659)" fill="#fff"/><path d="M466.749,180.8a4.047,4.047,0,1,1,3.318-4.663,4.047,4.047,0,0,1-3.318,4.663" transform="translate(-220.64 -98.496)" fill="#fff"/><path d="M309.954,229.836a4.047,4.047,0,1,1,3.318-4.663,4.046,4.046,0,0,1-3.318,4.663" transform="translate(-284.473 -78.533)" fill="#fff"/><path d="M336.7,225.324a4.048,4.048,0,1,1,3.318-4.665,4.048,4.048,0,0,1-3.318,4.665" transform="translate(-273.583 -80.37)" fill="#fff"/><path d="M363.454,220.812a4.048,4.048,0,1,1,3.318-4.665,4.048,4.048,0,0,1-3.318,4.665" transform="translate(-262.693 -82.207)" fill="#fff"/><path d="M390.2,216.3a4.048,4.048,0,1,1,3.318-4.665A4.048,4.048,0,0,1,390.2,216.3" transform="translate(-251.803 -84.044)" fill="#fff"/><path d="M416.954,211.788a4.048,4.048,0,1,1,3.318-4.665,4.048,4.048,0,0,1-3.318,4.665" transform="translate(-240.912 -85.881)" fill="#fff"/><path d="M443.7,207.275a4.047,4.047,0,1,1,3.318-4.663,4.046,4.046,0,0,1-3.318,4.663" transform="translate(-230.022 -87.718)" fill="#fff"/><path d="M470.453,202.763a4.048,4.048,0,1,1,3.318-4.665,4.048,4.048,0,0,1-3.318,4.665" transform="translate(-219.132 -89.555)" fill="#fff"/><path d="M313.659,251.8a4.048,4.048,0,1,1,3.317-4.665,4.048,4.048,0,0,1-3.317,4.665" transform="translate(-282.965 -69.592)" fill="#fff"/><path d="M340.408,247.286a4.048,4.048,0,1,1,3.318-4.665,4.048,4.048,0,0,1-3.318,4.665" transform="translate(-272.075 -71.429)" fill="#fff"/><path d="M367.158,242.774a4.048,4.048,0,1,1,3.318-4.665,4.048,4.048,0,0,1-3.318,4.665" transform="translate(-261.185 -73.266)" fill="#fff"/><path d="M393.908,238.262a4.048,4.048,0,1,1,3.318-4.665,4.048,4.048,0,0,1-3.318,4.665" transform="translate(-250.295 -75.103)" fill="#fff"/><path d="M420.658,233.749a4.047,4.047,0,1,1,3.318-4.663,4.046,4.046,0,0,1-3.318,4.663" transform="translate(-239.404 -76.94)" fill="#fff"/><path d="M447.408,229.237a4.048,4.048,0,1,1,3.318-4.665,4.048,4.048,0,0,1-3.318,4.665" transform="translate(-228.514 -78.777)" fill="#fff"/><path d="M474.158,224.725a4.048,4.048,0,1,1,3.318-4.665,4.048,4.048,0,0,1-3.318,4.665" transform="translate(-217.624 -80.614)" fill="#fff"/><path d="M317.363,273.76a4.048,4.048,0,1,1,3.318-4.665,4.048,4.048,0,0,1-3.318,4.665" transform="translate(-281.457 -60.651)" fill="#fff"/><path d="M344.113,269.248a4.048,4.048,0,1,1,3.318-4.665,4.048,4.048,0,0,1-3.318,4.665" transform="translate(-270.567 -62.488)" fill="#fff"/><path d="M370.863,264.736a4.048,4.048,0,1,1,3.318-4.665,4.048,4.048,0,0,1-3.318,4.665" transform="translate(-259.677 -64.325)" fill="#fff"/><path d="M397.613,260.224a4.048,4.048,0,1,1,3.318-4.665,4.048,4.048,0,0,1-3.318,4.665" transform="translate(-248.786 -66.162)" fill="#fff"/><path d="M424.363,255.711a4.048,4.048,0,1,1,3.318-4.665,4.048,4.048,0,0,1-3.318,4.665" transform="translate(-237.896 -67.999)" fill="#fff"/><path d="M451.113,251.2a4.048,4.048,0,1,1,3.318-4.665,4.047,4.047,0,0,1-3.318,4.665" transform="translate(-227.006 -69.836)" fill="#fff"/><path d="M477.863,246.687a4.048,4.048,0,1,1,3.318-4.665,4.048,4.048,0,0,1-3.318,4.665" transform="translate(-216.116 -71.673)" fill="#fff"/><path d="M321.068,295.722a4.048,4.048,0,1,1,3.318-4.665,4.048,4.048,0,0,1-3.318,4.665" transform="translate(-279.949 -51.71)" fill="#fff"/><path d="M347.818,291.21a4.048,4.048,0,1,1,3.316-4.665,4.046,4.046,0,0,1-3.316,4.665" transform="translate(-269.058 -53.547)" fill="#fff"/><path d="M374.567,286.7a4.048,4.048,0,1,1,3.318-4.665,4.048,4.048,0,0,1-3.318,4.665" transform="translate(-258.169 -55.384)" fill="#fff"/><path d="M401.317,282.185a4.048,4.048,0,1,1,3.318-4.665,4.048,4.048,0,0,1-3.318,4.665" transform="translate(-247.278 -57.222)" fill="#fff"/><path d="M428.067,277.673a4.048,4.048,0,1,1,3.318-4.665,4.048,4.048,0,0,1-3.318,4.665" transform="translate(-236.388 -59.058)" fill="#fff"/><path d="M454.817,273.161a4.048,4.048,0,1,1,3.318-4.665,4.048,4.048,0,0,1-3.318,4.665" transform="translate(-225.498 -60.895)" fill="#fff"/><path d="M481.567,268.649a4.048,4.048,0,1,1,3.318-4.665,4.048,4.048,0,0,1-3.318,4.665" transform="translate(-214.608 -62.732)" fill="#fff"/></g></g><g clip-path="url(#a)"><path d="M206.28,472.258a18.352,18.352,0,0,1-18.308-17.326l-8.406-149.971a18.374,18.374,0,0,1,17.3-19.352l45.723-2.564a3.105,3.105,0,0,0,2.775-2.056,3.033,3.033,0,0,0-.777-3.329,28.8,28.8,0,0,1-9.173-19.251c-.954-17.03,13.987-31.768,33.306-32.852.758-.042,1.51-.063,2.258-.063,18.44,0,33.6,12.733,34.509,28.986a28.8,28.8,0,0,1-6.962,20.157,3.037,3.037,0,0,0-.44,3.311,3.11,3.11,0,0,0,2.833,1.822l.194-.006,45.724-2.562q.523-.03,1.041-.03A18.356,18.356,0,0,1,366.188,294.5l2.516,44.887a3.165,3.165,0,0,0,3.163,2.977,2.994,2.994,0,0,0,2.137-.891A28.341,28.341,0,0,1,392.46,333.1q.779-.042,1.552-.042c16.5,0,30.253,14.648,31.3,33.349a37.4,37.4,0,0,1-7.614,25.231,29.023,29.023,0,0,1-21.311,11.538c-.518.03-1.033.044-1.548.044a28.561,28.561,0,0,1-17.728-6.3,3.031,3.031,0,0,0-1.883-.666,3.205,3.205,0,0,0-2.316,1.009,3.052,3.052,0,0,0-.834,2.323l2.516,44.888a18.357,18.357,0,0,1-17.3,19.352l-149.97,8.4c-.35.02-.7.03-1.046.03" transform="translate(73.092 91.801)" fill="#f1ce15"/><path d="M271.286,226.855c17.8,0,32.566,12.163,33.454,27.992a27.617,27.617,0,0,1-6.716,19.415,4.184,4.184,0,0,0,3.2,6.87c.084,0,.169,0,.253-.007l45.724-2.562c.329-.02.657-.028.984-.028a17.3,17.3,0,0,1,17.255,16.331l2.516,44.887a4.2,4.2,0,0,0,4.217,3.975,4.059,4.059,0,0,0,2.876-1.195,27.435,27.435,0,0,1,17.776-8.071q.749-.042,1.493-.042c15.834,0,29.226,14.154,30.246,32.352,1.053,18.77-11.452,34.733-27.928,35.656-.5.028-.995.042-1.49.042a27.585,27.585,0,0,1-17.077-6.077,4.076,4.076,0,0,0-2.534-.891,4.209,4.209,0,0,0-4.2,4.447l2.516,44.887a17.3,17.3,0,0,1-16.3,18.24l-149.97,8.406c-.331.018-.657.027-.984.027a17.3,17.3,0,0,1-17.257-16.331l-8.406-149.97a17.3,17.3,0,0,1,16.3-18.239l45.723-2.564a4.185,4.185,0,0,0,2.665-7.2,27.615,27.615,0,0,1-8.845-18.544c-.923-16.477,13.543-30.686,32.311-31.739q1.108-.063,2.2-.062m0-2.111h0c-.768,0-1.548.022-2.32.065a38.44,38.44,0,0,0-24.9,10.687,29.348,29.348,0,0,0,.1,43.235,2.021,2.021,0,0,1,.512,2.2,2.053,2.053,0,0,1-1.843,1.368l-45.723,2.562a19.431,19.431,0,0,0-18.292,20.465l8.406,149.97a19.41,19.41,0,0,0,19.363,18.323c.366,0,.732-.01,1.1-.031l149.97-8.406a19.408,19.408,0,0,0,18.292-20.465l-2.516-44.887a2.018,2.018,0,0,1,.549-1.539,2.174,2.174,0,0,1,1.548-.678,1.96,1.96,0,0,1,1.231.44,29.6,29.6,0,0,0,18.38,6.526c.535,0,1.069-.014,1.608-.045a30.051,30.051,0,0,0,22.08-11.941,38.444,38.444,0,0,0,7.838-25.94c-1.079-19.259-15.291-34.345-32.354-34.345-.535,0-1.071.014-1.611.045a29.375,29.375,0,0,0-19.138,8.675,1.959,1.959,0,0,1-1.4.588,2.086,2.086,0,0,1-2.109-1.983l-2.516-44.887a19.411,19.411,0,0,0-19.363-18.323c-.366,0-.732.01-1.1.031l-45.724,2.562q-.068,0-.135,0a2.054,2.054,0,0,1-1.876-1.212,1.994,1.994,0,0,1,.291-2.188,29.85,29.85,0,0,0,7.209-20.893c-.941-16.812-16.563-29.983-35.561-29.984" transform="translate(72.787 91.496)" fill="#fff"/></g><g transform="translate(253.685 318.351)"><g clip-path="url(#n)"><g transform="translate(-84.864 120.423)" opacity="0.35"><g clip-path="url(#o)"><path d="M125,359.2a4.048,4.048,0,1,1,2.948-4.907A4.046,4.046,0,0,1,125,359.2" transform="translate(-119.977 -295.787)" fill="#fff"/><path d="M151.326,352.633a4.048,4.048,0,1,1,2.948-4.907,4.046,4.046,0,0,1-2.948,4.907" transform="translate(-109.262 -298.46)" fill="#fff"/><path d="M177.647,346.067a4.048,4.048,0,1,1,2.948-4.907,4.047,4.047,0,0,1-2.948,4.907" transform="translate(-98.546 -301.133)" fill="#fff"/><path d="M203.969,339.5a4.048,4.048,0,1,1,2.947-4.907,4.048,4.048,0,0,1-2.947,4.907" transform="translate(-87.83 -303.806)" fill="#fff"/><path d="M230.29,332.934a4.048,4.048,0,1,1,2.948-4.907,4.047,4.047,0,0,1-2.948,4.907" transform="translate(-77.114 -306.48)" fill="#fff"/><path d="M256.611,326.368a4.048,4.048,0,1,1,2.948-4.907,4.046,4.046,0,0,1-2.948,4.907" transform="translate(-66.399 -309.153)" fill="#fff"/><path d="M282.932,319.8a4.047,4.047,0,1,1,2.948-4.907,4.047,4.047,0,0,1-2.948,4.907" transform="translate(-55.683 -311.826)" fill="#fff"/><path d="M130.4,380.809a4.048,4.048,0,1,1,2.948-4.907,4.046,4.046,0,0,1-2.948,4.907" transform="translate(-117.782 -286.989)" fill="#fff"/><path d="M156.717,374.243a4.048,4.048,0,1,1,2.948-4.907,4.046,4.046,0,0,1-2.948,4.907" transform="translate(-107.067 -289.662)" fill="#fff"/><path d="M183.038,367.677a4.048,4.048,0,1,1,2.948-4.907,4.046,4.046,0,0,1-2.948,4.907" transform="translate(-96.351 -292.336)" fill="#fff"/><path d="M209.359,361.109a4.048,4.048,0,1,1,2.948-4.907,4.047,4.047,0,0,1-2.948,4.907" transform="translate(-85.636 -295.009)" fill="#fff"/><path d="M235.68,354.544a4.048,4.048,0,1,1,2.948-4.907,4.046,4.046,0,0,1-2.948,4.907" transform="translate(-74.92 -297.682)" fill="#fff"/><path d="M262,347.978a4.048,4.048,0,1,1,2.948-4.907A4.047,4.047,0,0,1,262,347.978" transform="translate(-64.204 -300.355)" fill="#fff"/><path d="M288.323,341.412a4.048,4.048,0,1,1,2.948-4.907,4.046,4.046,0,0,1-2.948,4.907" transform="translate(-53.488 -303.028)" fill="#fff"/><path d="M135.787,402.418a4.048,4.048,0,1,1,2.948-4.907,4.046,4.046,0,0,1-2.948,4.907" transform="translate(-115.588 -278.192)" fill="#fff"/><path d="M162.108,395.853a4.048,4.048,0,1,1,2.948-4.907,4.046,4.046,0,0,1-2.948,4.907" transform="translate(-104.872 -280.865)" fill="#fff"/><path d="M188.429,389.286a4.048,4.048,0,1,1,2.948-4.907,4.046,4.046,0,0,1-2.948,4.907" transform="translate(-94.156 -283.538)" fill="#fff"/><path d="M214.75,382.72a4.048,4.048,0,1,1,2.948-4.907,4.046,4.046,0,0,1-2.948,4.907" transform="translate(-83.441 -286.211)" fill="#fff"/><path d="M241.071,376.154a4.048,4.048,0,1,1,2.948-4.907,4.046,4.046,0,0,1-2.948,4.907" transform="translate(-72.725 -288.884)" fill="#fff"/><path d="M267.393,369.587a4.048,4.048,0,1,1,2.948-4.907,4.047,4.047,0,0,1-2.948,4.907" transform="translate(-62.009 -291.557)" fill="#fff"/><path d="M293.714,363.022a4.048,4.048,0,1,1,2.948-4.907,4.046,4.046,0,0,1-2.948,4.907" transform="translate(-51.294 -294.231)" fill="#fff"/><path d="M141.178,424.029a4.048,4.048,0,1,1,2.948-4.907,4.048,4.048,0,0,1-2.948,4.907" transform="translate(-113.393 -269.394)" fill="#fff"/><path d="M167.5,417.462a4.048,4.048,0,1,1,2.948-4.907,4.046,4.046,0,0,1-2.948,4.907" transform="translate(-102.677 -272.067)" fill="#fff"/><path d="M193.82,410.9a4.048,4.048,0,1,1,2.948-4.907,4.047,4.047,0,0,1-2.948,4.907" transform="translate(-91.962 -274.741)" fill="#fff"/><path d="M220.141,404.329a4.048,4.048,0,1,1,2.948-4.907,4.046,4.046,0,0,1-2.948,4.907" transform="translate(-81.246 -277.414)" fill="#fff"/><path d="M246.462,397.764a4.048,4.048,0,1,1,2.948-4.907,4.047,4.047,0,0,1-2.948,4.907" transform="translate(-70.531 -280.087)" fill="#fff"/><path d="M272.783,391.2a4.048,4.048,0,1,1,2.948-4.907,4.046,4.046,0,0,1-2.948,4.907" transform="translate(-59.815 -282.76)" fill="#fff"/><path d="M299.1,384.631a4.048,4.048,0,1,1,2.948-4.907,4.047,4.047,0,0,1-2.948,4.907" transform="translate(-49.099 -285.433)" fill="#fff"/><path d="M225.532,425.94a4.048,4.048,0,1,1,2.948-4.907,4.046,4.046,0,0,1-2.948,4.907" transform="translate(-79.051 -268.616)" fill="#fff"/><path d="M251.853,419.373a4.048,4.048,0,1,1,2.948-4.907,4.047,4.047,0,0,1-2.948,4.907" transform="translate(-68.336 -271.289)" fill="#fff"/><path d="M278.174,412.807a4.048,4.048,0,1,1,2.948-4.907,4.046,4.046,0,0,1-2.948,4.907" transform="translate(-57.62 -273.963)" fill="#fff"/><path d="M304.495,406.241a4.048,4.048,0,1,1,2.948-4.907,4.047,4.047,0,0,1-2.948,4.907" transform="translate(-46.905 -276.636)" fill="#fff"/></g></g></g></g><g clip-path="url(#a)"><path d="M67.289,248.336s-1.4,61.478-5.15,82.565c-4.207,23.628-39.408,71.308-39.408,71.308l8.142,8.064,12.077,5.751s30.776-29.417,48.125-66.237c15.042-31.923,15.708-98.209,15.708-98.209" transform="translate(9.254 101.101)" fill="#f2a211"/><path d="M61.381,391.787c.386-1.458.542-3.27.024-4.034L48.854,369.286c-12-2.209-22.455-13.023-22.455-13.023l-10.5,11.62a.927.927,0,0,0,.29,1.276l42.247,26.607c.85.536,2.93-3.933,2.942-3.979" transform="translate(6.416 145.039)" fill="#00276f"/><path d="M43.062,367.743a24.242,24.242,0,0,0-5.047,2.541" transform="translate(15.476 149.713)" fill="none" stroke="#1a3987" stroke-linejoin="round" stroke-width="0.75"/><path d="M43.782,369.654a21.22,21.22,0,0,0-4.223,2.2" transform="translate(16.105 150.491)" fill="none" stroke="#1a3987" stroke-linejoin="round" stroke-width="0.75"/><path d="M44.571,371.163a30.229,30.229,0,0,0-3.915,2" transform="translate(16.552 151.105)" fill="none" stroke="#1a3987" stroke-linejoin="round" stroke-width="0.75"/><line x2="43.28" y2="27.259" transform="translate(23.838 511.029)" fill="none" stroke="#1a3987" stroke-linejoin="round" stroke-width="0.75"/><path d="M20.676,359.192s10,6.661,6.986,13.323" transform="translate(8.417 146.231)" fill="none" stroke="#1a3987" stroke-linejoin="round" stroke-width="0.75"/><path d="M48.407,375.952s-5.323,2.191-7.041,3.671" transform="translate(16.841 153.055)" fill="none" stroke="#1a3987" stroke-linejoin="round" stroke-width="0.75"/><path d="M86.5,273.86s2.356,35.933,3.995,63.419S95.343,427.5,95.343,427.5l11.894,2.811,13.194-2.2s3.425-54.165,3.425-90.052c0-37.117-1.431-89.722-1.431-89.722" transform="translate(35.217 101.101)" fill="#f2a211"/><path d="M142.05,386.523c-.459-1.437-1.3-3.049-2.147-3.415L119.4,374.275c-11.3,4.583-25.936,1.081-25.936,1.081l-2.61,15.44a.926.926,0,0,0,.93.92l49.927-.256c1-.006.357-4.893.343-4.938" transform="translate(36.986 152.372)" fill="#00276f"/><path d="M115.127,374.9a24.208,24.208,0,0,0-2.892,4.855" transform="translate(45.692 152.628)" fill="none" stroke="#1a3987" stroke-linejoin="round" stroke-width="0.75"/><path d="M116.813,376a21.242,21.242,0,0,0-2.377,4.128" transform="translate(46.588 153.075)" fill="none" stroke="#1a3987" stroke-linejoin="round" stroke-width="0.75"/><path d="M118.321,376.8a30.364,30.364,0,0,0-2.229,3.788" transform="translate(47.262 153.401)" fill="none" stroke="#1a3987" stroke-linejoin="round" stroke-width="0.75"/><line y1="0.262" x2="51.147" transform="translate(128.099 540.493)" fill="none" stroke="#1a3987" stroke-linejoin="round" stroke-width="0.75"/><path d="M92.047,378.935s12.014.243,13.048,7.483" transform="translate(37.473 154.269)" fill="none" stroke="#1a3987" stroke-linejoin="round" stroke-width="0.75"/><path d="M123.871,379.266s-3.312,4.708-3.967,6.878" transform="translate(48.814 154.404)" fill="none" stroke="#1a3987" stroke-linejoin="round" stroke-width="0.75"/><path d="M99.158,122.116c-6.433-1.466-12.566,2.863-15.416,7.332-.9,1.418-1.6,2.969-2.617,4.311-6.43,8.509-32.335,5.873-27.208,22.621.588,1.922,1.712,3.7,1.881,5.709.211,2.515-1.11,4.867-1.805,7.293-2.253,7.871,3.277,17.067,11.286,18.767,3.585.76,7.577.255,10.679,2.211,2.889,1.822,4.2,5.284,6.245,8.021,5.593,7.482,16.724,8.956,25.5,5.765,3.324-1.209,6.644-3.191,8.067-6.429.809-1.84.943-3.96,1.994-5.673,2.035-3.312,6.53-3.864,9.909-5.789,4.848-2.764,7.7-9.243,5.488-14.489-2.258-5.358-7.04-10.28-8.136-16.03-.611-3.2.269-6.553-.379-9.748a10.463,10.463,0,0,0-3.722-6.065c-1.306-1.036-2.848-1.745-4.136-2.8-2.71-2.222-3.062-6.191-5.849-8.475s-6.505-3.032-9.5-4.963" transform="translate(21.678 49.597)" fill="#ffe1ad"/><path d="M94.253,166.244c16.341-4.565,40.338-3.618,59.494-22.55S181.1,110.339,181.1,110.339l14.759,11.634s-19.373,37.17-36.645,49.664c-22.7,16.422-38.137,18.959-51.17,21.321" transform="translate(38.372 44.92)" fill="#f2a211"/><path d="M153.105,122.273c4.034-6.179,13.788-23.877,15.152-23.686s-1.766,6.391-.616,6.34,6.6-9.26,7.915-8.7c1.776.754-4.318,9.886-4.318,9.886s1.583-1.634,2.934-.535c.957.78-.184,3.537-.184,3.537s1.831-1.817,2.807-.988-.333,4.1-.333,4.1a2.347,2.347,0,0,1,2.3-.02c.936.722-3.853,11.741-12.767,26.037" transform="translate(62.331 39.164)" fill="#f2a211"/><path d="M162.7,104.112a34.466,34.466,0,0,0,0,5.408,9.192,9.192,0,0,1-.64,5.339" transform="translate(65.975 42.385)" fill="none" stroke="#cc328a" stroke-linejoin="round" stroke-width="0.75"/><path d="M166.25,103.766c-.381,1.041-.751,2.083-1.057,3.139-.153.528-.286,1.06-.387,1.591a4.109,4.109,0,0,0-.094,1.517c.082.227.084.246.265.249a1.207,1.207,0,0,0,.585-.2,6.043,6.043,0,0,0,1.189-.995,24.736,24.736,0,0,0,2.073-2.485.468.468,0,0,1,.792.5l-.006.008a32.208,32.208,0,0,0-1.389,2.91,14.218,14.218,0,0,0-.531,1.492,3.612,3.612,0,0,0-.187,1.349c.068.153-.031.083.11.111a.837.837,0,0,0,.507-.108,4.3,4.3,0,0,0,1.137-.9,14.856,14.856,0,0,0,1.884-2.54l.006-.008a.456.456,0,0,1,.8.433c-.422.885-.853,1.787-1.231,2.7a11.511,11.511,0,0,0-.85,2.771,1.2,1.2,0,0,0,.045.585c.044.113.139.144.348.115a3.013,3.013,0,0,0,1.161-.735,17.273,17.273,0,0,0,1.96-2.247,13.441,13.441,0,0,1-1.721,2.488,3.336,3.336,0,0,1-1.276.967,1.118,1.118,0,0,1-.5.03.735.735,0,0,1-.452-.356,1.672,1.672,0,0,1-.156-.884,12.021,12.021,0,0,1,.718-3.008,27.73,27.73,0,0,1,1.137-2.821l.808.425a15.829,15.829,0,0,1-1.966,2.758,5.178,5.178,0,0,1-1.41,1.138,1.838,1.838,0,0,1-1.072.218,1.07,1.07,0,0,1-.668-.281,1.227,1.227,0,0,1-.332-.618,3.863,3.863,0,0,1,.212-1.874,15.459,15.459,0,0,1,.6-1.587,32.75,32.75,0,0,1,1.5-2.98l.787.505a18.6,18.6,0,0,1-2.257,2.533,6.708,6.708,0,0,1-1.418,1.04,1.831,1.831,0,0,1-.986.235.846.846,0,0,1-.581-.267,1.016,1.016,0,0,1-.243-.53,7.54,7.54,0,0,1,.749-3.356,28.449,28.449,0,0,1,1.406-3.02" transform="translate(66.799 42.244)" fill="#cc328a"/><path d="M84.154,125.124c-.774-.418-1.8-.293-2.461-.874a3.593,3.593,0,0,1-.65-3.924c.744-2.057,3.391-2.955,5.4-2.658,4.811.712,4.062,5.337,1.13,7.079" transform="translate(32.875 47.882)" fill="#ffe1ad"/><path d="M71.184,206.13s-17.275,18.425-20.556,43.508-3.339,65.923-3.339,65.923,49.75,9.117,94.98-.975c-1.725-20.859,0-79.246-15.791-108.456" transform="translate(19.252 83.918)" fill="#2a2a68"/><path d="M53.794,318.742s-1.56-63.009,5.744-84.279c5.738-16.707,18.36-32.839,18.36-32.839" transform="translate(21.843 82.084)" fill="none" stroke="#5565aa" stroke-miterlimit="10" stroke-width="0.75"/><path d="M124.231,146.783l5.886,28.1s-11.521,4.667-23.454,5.346c-6.429-.118-16.171-25.144-12.487-29.969,10.728-3.181,30.055-3.48,30.055-3.48" transform="translate(38.012 59.757)" fill="#2e7efa"/><path d="M63.464,177.589s-.774,32.938,1.195,51.972c27.776,6.148,55.294,0,55.294,0l1.924-29.915c13.867-14.243,1.71-32.689,1.71-32.689l-17.174-17.426-17.179-.95Z" transform="translate(25.776 60.489)" fill="#2e7efa"/><path d="M93.577,148.637s-15.269-2.424-30.035,9.717c-3.335,2.741-7.477,8.455-10.9,15.359L76.45,189.393l14.039-15.679" transform="translate(21.432 60.432)" fill="#2e7efa"/><path d="M110.562,174.208c-1.175-4.4-4.423-11.341-4.423-15.577" transform="translate(43.211 64.581)" fill="none" stroke="#1a3987" stroke-linejoin="round" stroke-width="0.75"/><line x2="6.73" y2="29.26" transform="translate(157.75 206.692)" fill="none" stroke="#1a3987" stroke-linejoin="round" stroke-width="0.75"/><line x2="17.255" y2="10.714" transform="translate(76.148 230.266)" fill="none" stroke="#1a3987" stroke-linejoin="round" stroke-width="0.75"/><path d="M99.821,126.967s6.312,16.4,1.579,21.4c-2.46,2.6-11,1.155-14.209-1.3-2.385-1.822-5.534-12.737-4.248-14.794,4.911-7.864,16.878-5.309,16.878-5.309" transform="translate(33.645 51.528)" fill="#f2a211"/><path d="M82.377,137.112l-.643,16.138c1.279,4.068,14.989,7.936,17.179.95l-1.368-12.107Z" transform="translate(33.275 55.82)" fill="#f2a211"/><path d="M77.223,141.641a13.283,13.283,0,0,1-.675-4.805,18.657,18.657,0,0,1,.93-6.077,13.481,13.481,0,0,1,6.885-7.59c3.172-1.494,9.235-2.923,14.153-.017a9.127,9.127,0,0,1,7.031,2.151,7.009,7.009,0,0,1,2.13,6.872l-14.02-1.6a13.3,13.3,0,0,1-4.921,6.279c-2.163,1.477-4.544,3.324-3.649,6.342.374,1.258-.986,1.492-.986,3.924-2.515-.263-6.236-3.863-6.819-5.325-.021-.049-.041-.1-.059-.151" transform="translate(31.163 49.451)" fill="#ffe1ad"/><path d="M84.9,135.775c-1.489-2.3-2.89-2.091-3.749-.984-1.144,1.476.547,4.926,1.425,5.571,1.78,1.306,3.318,1.331,3.606-.187" transform="translate(32.883 54.548)" fill="#f2a211"/><path d="M96.234,144.269a16.991,16.991,0,0,1-10.359-3.131" transform="translate(34.961 57.459)" fill="none" stroke="#cc328a" stroke-linejoin="round" stroke-width="0.75"/><path d="M92.386,132.751s4.026,3.494,3.933,4.59S93.71,138.9,93.71,138.9" transform="translate(37.611 54.045)" fill="none" stroke="#cc328a" stroke-linejoin="round" stroke-width="0.5"/><path d="M97.382,137.788l-6.778,1.88a4.47,4.47,0,0,0,5.44,2.1c2.6-.919,1.338-3.982,1.338-3.982" transform="translate(36.886 56.095)" fill="#fff"/><path d="M94.411,132.022c.02.076.035.155.061.229s.051.149.077.224a4.8,4.8,0,0,0,.218.563.407.407,0,0,0,.142.155.415.415,0,0,0,.189.1l.148.02a.416.416,0,0,0,.214-.048.258.258,0,0,0,.122-.072.422.422,0,0,0,.144-.155.551.551,0,0,0,.056-.428,3.415,3.415,0,0,0-.145-.336l-.11-.211c-.035-.07-.072-.141-.108-.211s-.082-.135-.124-.2a.5.5,0,0,0-.288-.222.514.514,0,0,0-.315.024.461.461,0,0,0-.231.2.507.507,0,0,0-.049.373" transform="translate(38.429 53.5)" fill="#00276f"/><path d="M93.278,130.956a1.812,1.812,0,0,1,2.551-.649" transform="translate(37.975 52.932)" fill="none" stroke="#00276f" stroke-linecap="round" stroke-linejoin="round" stroke-width="0.5"/><path d="M89,134.068c.015.079.028.16.049.238s.041.145.061.218a4.093,4.093,0,0,0,.139.446.409.409,0,0,0,.1.189.426.426,0,0,0,.156.144.553.553,0,0,0,.758-.2.569.569,0,0,0,.056-.428,4.682,4.682,0,0,0-.229-.557c-.031-.07-.062-.142-.094-.212s-.075-.141-.113-.211a.491.491,0,0,0-.288-.222.514.514,0,0,0-.315.024.461.461,0,0,0-.231.2c-.017.039-.032.077-.049.115a.5.5,0,0,0,0,.257" transform="translate(36.224 54.333)" fill="#00276f"/><path d="M90.522,131.754s-1.766-.355-3.255,1.874" transform="translate(35.527 53.63)" fill="none" stroke="#00276f" stroke-linecap="round" stroke-linejoin="round" stroke-width="0.5"/><path d="M54.625,170.275c-7.417,14.97-12.024,36.781,3.619,43.425,16.324,6.931,59.109-45.444,59.109-45.444l-13.206-11.371L68.812,179.62" transform="translate(19.453 63.87)" fill="#f2a211"/><line x1="10.569" y2="8.233" transform="translate(77.696 243.49)" fill="none" stroke="#cc328a" stroke-linejoin="round" stroke-width="0.75"/><path d="M98.206,165.7h0a3.924,3.924,0,0,1-3.131-4.583l2.855-15.173,7.714,1.452-2.855,15.173a3.924,3.924,0,0,1-4.583,3.131" transform="translate(38.678 59.417)" fill="#2a2a68"/><path d="M107,154.45l-6.212-1.511a8.215,8.215,0,1,1,3.885-15.964l6.212,1.513a.689.689,0,0,1,.507.833l-3.559,14.623a.689.689,0,0,1-.833.507" transform="translate(38.48 55.669)" fill="#4376cf"/><path d="M108.457,146.634c-1.072,4.408-3.153,7.687-4.648,7.323s-1.836-4.231-.764-8.64,3.155-7.687,4.649-7.323,1.835,4.231.763,8.64" transform="translate(41.696 56.168)" fill="#9cd0ff"/><path d="M122.784,168.4s-11.389-9.775-18.124-13.809c-2.112-1.718-1.4-5.772-.813-7.987,1.51-5.711,3.48-6.457,3.48-6.457,9.152.636,23.517-3.727,23.517-3.727" transform="translate(42.031 55.537)" fill="#2a2a68"/><path d="M118.153,151.61c-2.509,9.952-2.234,18.6.614,19.321s7.188-6.77,9.7-16.724,2.233-18.6-.614-19.32-7.189,6.768-9.7,16.722" transform="translate(47.403 54.895)" fill="#9cd0ff"/><path d="M119.31,151.221c-2.122,8.419-2.1,15.681.044,16.221s5.606-5.845,7.726-14.263,2.1-15.682-.044-16.223-5.6,5.845-7.726,14.264" transform="translate(47.93 55.744)" fill="#4376cf"/><path d="M122.9,153.221a10.721,10.721,0,0,0-4.748-.1c.25-1.5.577-3.077.986-4.7s.87-3.17,1.359-4.608a10.737,10.737,0,0,0,4.228,2.161Z" transform="translate(48.101 58.547)" fill="#2a2a68"/><path d="M121.577,148.734c-.509,2.022-.48,3.771.066,3.909s1.4-1.389,1.912-3.411.48-3.771-.068-3.909-1.4,1.39-1.911,3.411" transform="translate(49.348 59.159)" fill="#ffe1ad"/><path d="M83.289,162.856a173.345,173.345,0,0,1,16.069-9.613,13.437,13.437,0,0,1,10.138.2,5.872,5.872,0,0,1,2.455,1.712,5.235,5.235,0,0,1,1.016,3.456.756.756,0,0,1-.238.622c-.439.3-.848-.384-1.123-.839a3.5,3.5,0,0,0-3.184-1.622c.678.021.978.68,1.269,1.29a1.136,1.136,0,0,1-.718,1.593,1.5,1.5,0,0,1,.341,2.833,1.015,1.015,0,0,1,.576,1.106,2.624,2.624,0,0,1-.6,1.195,28.473,28.473,0,0,1-4.224,4.224c-4.736,4.074-14.545,15.141-14.545,15.141" transform="translate(33.908 62.019)" fill="#f2a211"/><path d="M136.823,382.235l-39.855-2.969L83.9,380.617l.262,49.554a2.266,2.266,0,0,0,4.385.791l10.165-22.106,41.538,4.991" transform="translate(34.155 154.404)" fill="#f15352"/><path d="M86.191,435.077c1.642-.523,3.485-1.486,3.9-2.455l10.095-23.438c-5.237-12.92-1.234-29.644-1.234-29.644l-17.648-1.282a1.058,1.058,0,0,0-1.051,1.064l.291,55.363c.007,1.148,5.592.409,5.644.393" transform="translate(32.673 153.994)" fill="#2e7efa"/><path d="M95.309,404.8a27.7,27.7,0,0,0-5.548-3.305" transform="translate(36.543 163.452)" fill="none" stroke="#1a3987" stroke-linejoin="round" stroke-width="0.75"/><path d="M93.815,406.725a24.373,24.373,0,0,0-4.718-2.717" transform="translate(36.272 164.477)" fill="none" stroke="#1a3987" stroke-linejoin="round" stroke-width="0.75"/><path d="M92.788,408.448a34.532,34.532,0,0,0-4.33-2.547" transform="translate(36.012 165.247)" fill="none" stroke="#1a3987" stroke-linejoin="round" stroke-width="0.75"/><line x2="0.3" y2="56.759" transform="translate(116.739 532.554)" fill="none" stroke="#1a3987" stroke-linejoin="round" stroke-width="0.75"/><path d="M91.386,378.837s-.093,13.144-8.367,14.324" transform="translate(33.798 154.229)" fill="none" stroke="#1a3987" stroke-linejoin="round" stroke-width="0.75"/><path d="M90.993,414.792s-5.381-3.787-7.863-4.534" transform="translate(33.843 167.021)" fill="none" stroke="#1a3987" stroke-linejoin="round" stroke-width="0.75"/><path d="M198.621,324.268c.592,1.22,8.008,53.814,13.316,90.491,3.324,22.958,3.74,37.452-29.686,34.708-46.024-3.778-78.093-5.859-78.093-5.859l-1.069-41.271,63.248,3.017L158.1,364.523s-15.3-20.4-4.026-43.743" transform="translate(41.968 130.593)" fill="#816fc2"/><line x2="1.669" y2="40.946" transform="translate(151.876 533.256)" fill="none" stroke="#4c3f89" stroke-miterlimit="10" stroke-width="0.75"/><path d="M187.451,342.626l11.119,64.606a2.852,2.852,0,0,1-3,3.2L103.3,404.742" transform="translate(42.053 139.487)" fill="none" stroke="#4c3f89" stroke-miterlimit="10" stroke-width="0.75"/><path d="M207.416,378.551,199,418.406l-.35,13.072,51.255-.262a2.266,2.266,0,0,0,.791-4.385l-22.106-10.165,10.437-41.538" transform="translate(80.873 152.72)" fill="#f15352"/><path d="M255.2,418.647c-.525-1.642-1.487-3.485-2.457-3.9l-23.438-10.095c-12.919,5.237-29.644,1.234-29.644,1.234l-2.982,17.648a1.057,1.057,0,0,0,1.062,1.051l57.064-.291c1.148-.007.411-5.592.394-5.644" transform="translate(80.072 164.738)" fill="#2e7efa"/><path d="M224.432,405.367a27.629,27.629,0,0,0-3.3,5.548" transform="translate(90.024 165.03)" fill="none" stroke="#1a3987" stroke-linejoin="round" stroke-width="0.75"/><path d="M226.359,406.621a24.373,24.373,0,0,0-2.717,4.718" transform="translate(91.047 165.54)" fill="none" stroke="#1a3987" stroke-linejoin="round" stroke-width="0.75"/><path d="M228.083,407.536a34.387,34.387,0,0,0-2.548,4.331" transform="translate(91.818 165.913)" fill="none" stroke="#1a3987" stroke-linejoin="round" stroke-width="0.75"/><line y1="0.3" x2="58.46" transform="translate(277.057 585.211)" fill="none" stroke="#1a3987" stroke-linejoin="round" stroke-width="0.75"/><path d="M198.052,409.974s13.733.279,14.915,8.552" transform="translate(80.629 166.906)" fill="none" stroke="#1a3987" stroke-linejoin="round" stroke-width="0.75"/><path d="M234.426,410.353s-3.787,5.381-4.534,7.862" transform="translate(93.592 167.06)" fill="none" stroke="#1a3987" stroke-linejoin="round" stroke-width="0.75"/><path d="M199.718,314.717l2.925,11.489A3.706,3.706,0,0,0,206.234,329h39.674c9.709,0,19.951.25,25.5,8.669,4.549,6.9,2.935,18.388-.85,31.592-3.249,11.331-14.735,62.96-14.735,62.96H215l11.527-61.633h-47.1s-30.485.25-26.265-30.315" transform="translate(62.19 128.125)" fill="#816fc2"/><line x2="40.884" transform="translate(278.285 553.963)" fill="none" stroke="#4c3f89" stroke-miterlimit="10" stroke-width="0.75"/><path d="M185.848,363.193h-5.583s-29.2,0-29.572-30.315" transform="translate(61.349 135.519)" fill="none" stroke="#4c3f89" stroke-miterlimit="10" stroke-width="0.75"/><path d="M173.378,321.708s.743,34.19,29.5,34.19h21.647a4.237,4.237,0,0,1,4.148,5.1L214.4,429.278" transform="translate(70.584 130.971)" fill="none" stroke="#4c3f89" stroke-miterlimit="10" stroke-width="0.75"/><path d="M175.379,335.9c.225.609,12.083-2.72,11.858-14.188" transform="translate(71.399 130.972)" fill="none" stroke="#4c3f89" stroke-miterlimit="10" stroke-width="0.75"/><path d="M157.672,335.71a48.9,48.9,0,0,0,11.876-1.645" transform="translate(64.19 136.002)" fill="none" stroke="#4c3f89" stroke-miterlimit="10" stroke-width="0.75"/><path d="M136.43,335.234s5.737.162,10.093,0" transform="translate(55.542 136.478)" fill="none" stroke="#4c3f89" stroke-miterlimit="10" stroke-width="0.75"/><path d="M168.343,259.746s14.126-43.824,40.431-79.108l-17.984-10.964c-28.446,30.861-47.186,82.488-47.186,82.488" transform="translate(58.463 69.076)" fill="#f15352"/><path d="M135.973,315.351s-5.88-54.071,16.393-99.424l26.3,8.588-6.93,34.67" transform="translate(55.07 87.907)" fill="#ffe1ad"/><line x2="25.919" y2="8.966" transform="translate(205.46 308.937)" fill="none" stroke="#d19b4b" stroke-miterlimit="10" stroke-width="0.75"/><path d="M193.654,191.931c4.244-6.484,19.621-23.25,18.876-24.651s-6.232,4.425-6.629,3.16,7.438-10.8,6.321-12c-1.515-1.627-9.017,8.569-9.017,8.569s7.659-11.578,5.937-12.609c-1.22-.73-7.472,7.836-10.272,10.811,2.626-3.609,6.184-9.962,4.9-10.694s-5.652,5.015-9.243,9.236c2-2.844,5.346-8.213,4.192-8.945s-15.744,14.768-27.247,30.5" transform="translate(69.808 62.84)" fill="#f15352"/><path d="M173.548,284.846s26.911,10.313,46.642,11.595c25.875,1.681,55.961-7.96,55.961-7.96s3.97-21.263-6.383-20.25c-12.758,2.327-34.823,3.957-51.422,1.945-10.355-1.255-32.386-13.051-32.386-13.051" transform="translate(70.654 104.679)" fill="#f15352"/><path d="M237.762,267.713c7.681-1.02,29.451-7.628,30.392-6.35s-6.687,3.7-5.718,4.608,12.955-2.032,13.555-.505c.812,2.071-11.627,4.421-11.627,4.421s13.752-1.9,13.937.1c.129,1.416-10.3,3.345-14.191,4.582,4.389-.8,11.655-1.264,11.761.21s-6.968,2.925-12.326,4.337c3.426-.567,9.718-1.265,9.878.091s-16.788,6.114-32.921,9.967" transform="translate(96.796 106.337)" fill="#f15352"/><path d="M154.838,240.74l-3.677,18.488s10.354,10.48,21.2.725l-.122-12.394Z" transform="translate(61.54 98.008)" fill="#f15352"/><path d="M173.347,228.383s8.837,17.678,3.364,23.523c-2.844,3.038-7.009,4.195-10.763,1.361-2.785-2.1-13.463-14.776-11.982-17.178,5.661-9.179,19.38-7.705,19.38-7.705" transform="translate(62.625 92.942)" fill="#f15352"/><path d="M170.2,235.436s3.26,3.249,3.26,5.4c0,.951-3.26,1.1-3.26,1.1" transform="translate(69.291 95.849)" fill="#f15352"/><path d="M171.756,241.583l-5.742-.844c-.28,2.177,4,7.608,5.742.844" transform="translate(67.581 98.008)" fill="#fff"/><path d="M167.126,235.32a1.359,1.359,0,0,0-.052.432,3.4,3.4,0,0,0,.066.443,2.264,2.264,0,0,0,.1.328.985.985,0,0,0,.075.177c.035.052.076.1.115.148a.559.559,0,0,0,.283.2.448.448,0,0,0,.546-.311.579.579,0,0,0-.008-.3c-.011-.037-.02-.075-.031-.111-.032-.106-.09-.2-.132-.3.015.039.032.077.049.117a2.361,2.361,0,0,1-.158-.58l.017.124a1.853,1.853,0,0,0-.044-.236c-.013-.044-.023-.087-.032-.131a.414.414,0,0,0-.4-.3.422.422,0,0,0-.4.3" transform="translate(68.017 95.678)" fill="#00276f"/><path d="M165.151,234.945a3.679,3.679,0,0,1,2.734-1.62,1.877,1.877,0,0,1,1.34.325" transform="translate(67.235 94.986)" fill="none" stroke="#00276f" stroke-linecap="round" stroke-linejoin="round" stroke-width="0.5"/><path d="M153.786,231.184c.95-6.274,7.332-7.57,19.208-5.8,1.59.236,4.529-.6,5.143.889.806,1.953.643,5.745-1.382,7.279-1.769,1.341-4.259.63-6.239,1.342-3.2,1.15-1.618,4.233-3.315,6.488-2.82,3.751-.955,9.276-5.606,12.138-2.651,1.631-6.037,1.165-9.1.6a2.406,2.406,0,0,1-1.058-.38c-1.053-.822-.628-3.694-.934-4.933a37.968,37.968,0,0,1-1.189-12.263c.3-3.56,3.16-5.713,4.469-5.354" transform="translate(60.746 91.461)" fill="#0b0b3a"/><path d="M163.471,237.874c-.626-3.691-3.376-2.412-4.366-1.12-1.321,1.724.668,5.726,1.694,6.47,2.078,1.507,3.867,1.527,4.193-.241" transform="translate(64.595 95.853)" fill="#f15352"/><path d="M167.895,248.308a21.821,21.821,0,0,1-6.514-3.234" transform="translate(65.7 99.773)" fill="none" stroke="#cc328a" stroke-linejoin="round" stroke-width="0.75"/><path d="M157.358,249.861s-16.061,6.8-21.011,32.168c-2.2,11.284,2.032,71.965,2.035,71.916,34.754,6.778,72.176-3.232,72.176-3.232s-4.286-39.555-6.239-54.454c-4.508-34.379-28.191-45.3-28.191-45.3Z" transform="translate(55.25 101.721)" fill="#ffe1ad"/><path d="M164.435,250.64s13.361,2.053,21.948,6.149,27.909,13.494,27.909,13.494l-9.929,27.471L169.3,286.669" transform="translate(66.944 102.039)" fill="#ffe1ad"/><line x1="19.697" y1="5.775" transform="translate(239.504 389.739)" fill="none" stroke="#d19b4b" stroke-miterlimit="10" stroke-width="0.75"/><line x1="9.411" y2="28.231" transform="translate(265.809 369.4)" fill="none" stroke="#d19b4b" stroke-miterlimit="10" stroke-width="0.75"/><path d="M137.37,321.54a229.394,229.394,0,0,0,71.851-2.63" transform="translate(55.925 129.832)" fill="none" stroke="#d19b4b" stroke-miterlimit="10" stroke-width="0.75"/><path d="M533.673,376l8.415,39.855-1.351,13.072-49.554-.262a2.266,2.266,0,0,1-.791-4.385L512.5,414.12l-10.437-41.538" transform="translate(199.049 151.683)" fill="#f11e1d"/><path d="M487.407,416.1c.522-1.642,1.486-3.485,2.454-3.9L513.3,402.1c12.92,5.237,29.644,1.234,29.644,1.234l1.282,17.648a1.059,1.059,0,0,1-1.064,1.051l-55.363-.291c-1.148-.007-.41-5.592-.391-5.644" transform="translate(198.328 163.701)" fill="#18277a"/><path d="M502.131,402.82a27.667,27.667,0,0,1,3.3,5.548" transform="translate(204.424 163.993)" fill="none" stroke="#5565aa" stroke-miterlimit="10" stroke-width="0.75"/><path d="M500.034,404.074a24.373,24.373,0,0,1,2.717,4.718" transform="translate(203.57 164.504)" fill="none" stroke="#5565aa" stroke-miterlimit="10" stroke-width="0.75"/><path d="M498.262,404.99a34.709,34.709,0,0,1,2.547,4.33" transform="translate(202.849 164.876)" fill="none" stroke="#5565aa" stroke-miterlimit="10" stroke-width="0.75"/><line x1="56.759" y1="0.3" transform="translate(685.493 581.628)" fill="none" stroke="#5565aa" stroke-miterlimit="10" stroke-width="0.75"/><path d="M531.28,407.56s-13.144.091-14.324,8.367" transform="translate(210.459 165.923)" fill="none" stroke="#5565aa" stroke-miterlimit="10" stroke-width="0.75"/><path d="M492.493,407.806s3.786,5.381,4.532,7.862" transform="translate(200.5 166.023)" fill="none" stroke="#5565aa" stroke-miterlimit="10" stroke-width="0.75"/><path d="M516.815,272.754s-31.708,70.91-30.036,96.026c1.558,23.383,19.292,82.613,19.292,82.613l38.013-6.969s-18.176-73.15-17.231-80.718,24.157-59.639,24.157-59.639,8.986-12.271,5.9-33.37" transform="translate(198.147 110.204)" fill="#2e7efa"/><path d="M527.834,435.52s-17.727-73.842-16.784-81.411,22.916-58.679,22.916-58.679" transform="translate(208.04 120.273)" fill="none" stroke="#1a3987" stroke-linejoin="round" stroke-width="0.75"/><line x1="38.131" y2="7.686" transform="translate(702.384 547.644)" fill="none" stroke="#1a3987" stroke-linejoin="round" stroke-width="0.75"/><path d="M568.491,361.783l17.734,37.093,4.32,12.411-44.987,20.782a2.267,2.267,0,0,1-2.577-3.636l15.708-18.581-20.276-37.76" transform="translate(219.195 147.286)" fill="#f11e1d"/><path d="M540.462,422.892c-.222-1.708-.132-3.787.568-4.576l16.944-19.083c13.921-.737,27.368-11.454,27.368-11.454l8.645,15.437a1.058,1.058,0,0,1-.516,1.4l-50.261,23.217c-1.043.481-2.742-4.891-2.749-4.945" transform="translate(219.985 157.87)" fill="#18277a"/><path d="M549.916,398.1a27.645,27.645,0,0,1,5.346,3.623" transform="translate(223.878 162.071)" fill="none" stroke="#5565aa" stroke-miterlimit="10" stroke-width="0.75"/><path d="M548.549,400.124a24.363,24.363,0,0,1,4.462,3.121" transform="translate(223.321 162.895)" fill="none" stroke="#5565aa" stroke-miterlimit="10" stroke-width="0.75"/><path d="M547.332,401.7a34.532,34.532,0,0,1,4.143,2.841" transform="translate(222.826 163.539)" fill="none" stroke="#5565aa" stroke-miterlimit="10" stroke-width="0.75"/><line x1="51.527" y2="23.801" transform="translate(761.004 558.716)" fill="none" stroke="#5565aa" stroke-miterlimit="10" stroke-width="0.75"/><path d="M577.393,391.786s-11.863,5.658-9.425,13.652" transform="translate(231.093 159.501)" fill="none" stroke="#5565aa" stroke-miterlimit="10" stroke-width="0.75"/><path d="M543.3,406.7s5.711,3.267,7.439,5.2" transform="translate(221.185 165.574)" fill="none" stroke="#5565aa" stroke-miterlimit="10" stroke-width="0.75"/><path d="M528.211,276.245s-12.086,66.96-6.381,91.476c6.381,27.425,33.883,73.895,33.883,73.895l34.266-17.022s-29.57-56.491-29.523-68.681c.031-7.627,6.771-54.62,6.771-54.62s6.771-13.621.149-33.889" transform="translate(211.821 108.863)" fill="#2e7efa"/><path d="M572.753,428.031S543.212,372.816,543.23,357.1c.008-7.625,4.687-43.183,6.771-54.62s6.158-24.655.149-33.888" transform="translate(221.156 109.347)" fill="none" stroke="#1a3987" stroke-linejoin="round" stroke-width="0.75"/><path d="M520.349,341.792c1.8-18.819,3.929-44.076,6.794-66.575" transform="translate(211.841 112.044)" fill="none" stroke="#1a3987" stroke-linejoin="round" stroke-width="0.75"/><path d="M539.48,275.217s2.322,5.768,14.9,9.115" transform="translate(219.629 112.044)" fill="none" stroke="#1a3987" stroke-linejoin="round" stroke-width="0.75"/><path d="M521.6,276.192s-1.888,13.8-.781,15.623c.506.834,4.492,1.587,4.492,1.587" transform="translate(211.891 112.441)" fill="none" stroke="#1a3987" stroke-linejoin="round" stroke-width="0.75"/><path d="M504.718,281.389s7.6.194,11.959-4.666" transform="translate(205.477 112.657)" fill="none" stroke="#1a3987" stroke-linejoin="round" stroke-width="0.75"/><line x1="34.736" y2="16.819" transform="translate(763.995 527.497)" fill="none" stroke="#1a3987" stroke-linejoin="round" stroke-width="0.75"/><path d="M520.521,200.727s-14.414,4.143-16.487,31.743c-1.957,11.327,2.747,74.294,2.748,74.245,34.892,6.028,72.09-4.787,72.09-4.787s-6.515-39.453-8.994-54.274c-6.226-37.205-31.954-45.112-31.954-45.112Z" transform="translate(205.004 81.718)" fill="#18277a"/><path d="M542.164,219.753a190.825,190.825,0,0,0-21.7-29.662c-17.333-19.284-43.5-35.48-43.5-35.48s-17.7,12.435-9.587,18.944c10.752,7.251,24.494,21.672,34.961,34.711,6.529,8.133,19.735,33.057,19.735,33.057" transform="translate(189.408 62.944)" fill="#f11e1d"/><path d="M478.681,180.026c-6.207-4.639-26.4-15.125-26.177-16.7s7.37,2.025,7.31.7-10.687-7.6-10.048-9.112c.867-2.047,11.406,4.963,11.406,4.963s-11.161-8.254-9.9-9.813c.9-1.1,9.7,4.8,13.354,6.639-3.7-2.491-9.221-7.241-8.267-8.368s7.029,2.776,11.848,5.512c-2.848-1.988-7.835-5.886-7-6.968s16.338,6.756,30.964,16.85" transform="translate(183.094 59.757)" fill="#f11e1d"/><path d="M563.176,237.443s-12.947,25.747-26.669,39.984c-17.994,18.67-46.725,31.805-46.725,31.805s-17.255-13.044-8.921-19.268c11-6.872,28.405-20.53,39.32-33.2,6.809-7.9,17.7-32.627,17.7-32.627" transform="translate(194.839 91.251)" fill="#f11e1d"/><path d="M492.449,268.712c-6.364,4.42-26.907,14.2-26.742,15.775s7.437-1.766,7.331-.445-10.946,7.224-10.361,8.755c.8,2.077,11.572-4.562,11.572-4.562s-11.441,7.86-10.231,9.463c.857,1.134,9.865-4.463,13.576-6.17-3.787,2.361-9.467,6.916-8.554,8.075s7.121-2.53,12.034-5.1c-2.916,1.888-8.036,5.61-7.241,6.72s16.528-6.788,31.048-14.8" transform="translate(188.352 109.396)" fill="#f11e1d"/><path d="M524.132,219.412c-3.6,12.117-13.118,32.182-13.118,32.182l25.84,13.618s13.327-16.263,18.366-35.8" transform="translate(208.04 89.325)" fill="#18277a"/><path d="M529.378,260.965s14.466-20.2,16.982-31.121" transform="translate(215.516 93.572)" fill="none" stroke="#5565aa" stroke-miterlimit="10" stroke-width="0.75"/><path d="M511.014,250.28s9.616-18.623,11.634-27.641" transform="translate(208.04 90.639)" fill="none" stroke="#5565aa" stroke-miterlimit="10" stroke-width="0.75"/><path d="M509.267,249.047c-.322-10.117-5.2-31.26-19.714-50.6L512.4,180.17s20.075,16.073,25.8,30.252" transform="translate(199.303 73.349)" fill="#18277a"/><path d="M513.214,180.149s-5.833,16.165-.642,21.418c2.7,2.73,10.663,3.208,14.053.5,2.516-2.009,6.242-14.438,4.815-16.615-5.45-8.322-18.226-5.3-18.226-5.3" transform="translate(207.799 73.124)" fill="#f11e1d"/><path d="M515.59,185.412s-3.127,3.817-3,4.99,2.833,1.607,2.833,1.607" transform="translate(208.68 75.484)" fill="none" stroke="#d1d9c3" stroke-linejoin="round" stroke-width="0.5"/><path d="M512.457,190.867l7.314,1.859a4.8,4.8,0,0,1-5.786,2.381c-2.814-.924-1.528-4.24-1.528-4.24" transform="translate(208.508 77.704)" fill="#fff"/><path d="M512.818,184.275c-.044.075-.091.148-.128.225l-.11.225a5.79,5.79,0,0,0-.256.581.422.422,0,0,0-.01.221.405.405,0,0,0,.066.207c.028.038.058.075.086.113a.422.422,0,0,0,.18.114.521.521,0,0,0,.36.028.534.534,0,0,0,.332-.255,3.044,3.044,0,0,0,.143-.359c.025-.079.052-.159.077-.238s.052-.159.077-.238.044-.169.065-.252a.484.484,0,0,0-.884-.373" transform="translate(208.565 74.925)" fill="#00276f"/><path d="M515.3,183.48a1.946,1.946,0,0,0-2.752-.637" transform="translate(208.665 74.302)" fill="none" stroke="#00276f" stroke-linecap="round" stroke-linejoin="round" stroke-width="0.5"/><path d="M518.656,186.345c-.056.113-.113.224-.161.341-.031.077-.063.153-.094.229a4.638,4.638,0,0,0-.184.481.574.574,0,0,0,.056.428.558.558,0,0,0,.76.2l.112-.087a.538.538,0,0,0,.142-.245,4.481,4.481,0,0,0,.141-.483l.063-.239c.021-.082.032-.167.048-.252a.474.474,0,0,0-.28-.571.475.475,0,0,0-.315-.024.482.482,0,0,0-.288.222" transform="translate(210.965 75.766)" fill="#00276f"/><path d="M518.5,184.262s1.886-.421,3.535,1.935" transform="translate(211.086 75.004)" fill="none" stroke="#00276f" stroke-linecap="round" stroke-linejoin="round" stroke-width="0.5"/><path d="M530.344,190.5l3.193,16.2s-12.234,9.174-18.995-.59l-.208-10.591Z" transform="translate(209.392 77.555)" fill="#f11e1d"/><path d="M538.454,195.05a16.666,16.666,0,0,1,.5-1.727c.491-1.368,1.241-2.578,1.779-3.922a6.976,6.976,0,0,0-2.088-7.829,11.683,11.683,0,0,1-1.2-.964,9.829,9.829,0,0,1-1.547-3.075,4.294,4.294,0,0,0-1.771-2.144c-1.912-1.019-4.462.363-6.374-.659a8.866,8.866,0,0,1-1.138-.825c-2.744-2.074-5.856-1.59-8.846-.509a9.409,9.409,0,0,0-3.022,1.964c-1.272.991-3.034.923-4.313,1.893-1.342,1.017-1.681,2.886-1.694,4.57a4.158,4.158,0,0,0,.28,1.794,3.372,3.372,0,0,0,1.722,1.532c1.715.781,3.642.48,5.46.343,1.776-.134,3.84-1.386,5.578-.737,1.694.633,2.128,2.712,4.216,2.875.82.063,1.821-.087,2.312.576.554.749.263,1.978.7,2.845a20.526,20.526,0,0,0,1.667,2.306c1.054,1.5,2.55,2.523,2.014,4.476-.37,1.358-1.88,3.537-1.257,4.976.411.948,2.5.932,4.075-.269,1.627-1.237,2.111-3.6,2.509-5.475.146-.689.277-1.356.437-2.016" transform="translate(207.114 70.214)" fill="#212237"/><path d="M524.919,189.323c1.544-2.5,3.052-2.309,4-1.143,1.261,1.558-.473,5.3-1.4,6.008-1.879,1.442-3.528,1.5-3.872-.117" transform="translate(213.182 76.273)" fill="#f11e1d"/><path d="M514.785,197.692a22.33,22.33,0,0,0,10.665-2.582" transform="translate(209.575 79.432)" fill="none" stroke="#d1d9c3" stroke-linejoin="round" stroke-width="0.75"/><path d="M503.773,232.438s.386-15.8-1.421-20.63" transform="translate(204.514 86.23)" fill="none" stroke="#5565aa" stroke-miterlimit="10" stroke-width="0.75"/><path d="M513.37,204.018s2.872,5,10.646,4.829c8.808-.19,12.452-6.1,12.452-6.1" transform="translate(208.999 82.542)" fill="none" stroke="#5565aa" stroke-miterlimit="10" stroke-width="0.75"/><path d="M406.233,144.183c-.868,7.473-6.418,24.786-5.329,25.493s3.692-5.949,4.47-5.213-2.15,10.805-.861,11.239c1.746.588,4.048-9.369,4.048-9.369s-1.891,10.973-.218,11.073c1.185.07,3.19-7.863,4.13-10.928-.567,3.443-1.42,8.876-.187,8.925s2.613-4.639,3.664-8.854c-.394,2.688-1.643,8.016-.508,8.112s5.268-12.015,7.9-27.115" transform="translate(163.155 58.699)" fill="#f1ce15"/><path d="M426.959,90.216c5.367,39.485-6.4,86.913-6.4,86.913l-16.308-3.5s6.118-42.827-.77-80.452" transform="translate(164.264 36.728)" fill="#f1ce15"/><path d="M395.744,65.216a36.813,36.813,0,0,1,22.847,8.074c10.878,8.536,13.607,28.228,13.607,28.228l-25.719,5.143s-1.355-16.607-1.556-22.3" transform="translate(161.112 26.55)" fill="#ff9357"/><path d="M403.619,98.858a74.033,74.033,0,0,0-3.152-14.471" transform="translate(163.035 34.355)" fill="none" stroke="#a52f2d" stroke-miterlimit="10" stroke-width="0.75"/><rect width="32.425" height="32.425" transform="matrix(0.965, -0.263, 0.263, 0.965, 728.443, 88.583)" fill="none" stroke="#91abe5" stroke-miterlimit="10" stroke-width="1.5"/><rect width="15.941" height="15.941" transform="matrix(0.125, -0.992, 0.992, 0.125, 20.188, 459.946)" fill="none" stroke="#91abe5" stroke-miterlimit="10" stroke-width="1.5"/><circle cx="12.826" cy="12.826" r="12.826" transform="translate(807.078 460.095)" fill="none" stroke="#ff9c94" stroke-miterlimit="10" stroke-width="1.5"/><path d="M228.6,26.282a6.413,6.413,0,1,1-6.412-6.412A6.412,6.412,0,0,1,228.6,26.282Z" transform="translate(87.843 8.089)" fill="none" stroke="#91abe5" stroke-miterlimit="10" stroke-width="1.5"/><path d="M606.2,226.99a6.413,6.413,0,1,1-6.412-6.412A6.412,6.412,0,0,1,606.2,226.99Z" transform="translate(241.569 89.8)" fill="none" stroke="#91abe5" stroke-miterlimit="10" stroke-width="1.5"/><path d="M610.755,321a6.413,6.413,0,1,1-6.412-6.412A6.412,6.412,0,0,1,610.755,321Z" transform="translate(243.424 128.072)" fill="none" stroke="#91abe5" stroke-miterlimit="10" stroke-width="1.5"/><path d="M13.576,287.938a6.413,6.413,0,1,1-6.412-6.412A6.412,6.412,0,0,1,13.576,287.938Z" transform="translate(0.305 114.613)" fill="none" stroke="#ff9c94" stroke-miterlimit="10" stroke-width="1.5"/><path d="M119.977,41.241l.684,4.268a3.846,3.846,0,0,0,3.875,3.236l2.833-.059a3.844,3.844,0,0,1,3.874,3.236l.447,2.795a3.845,3.845,0,0,0,3.875,3.235l2.837-.058a3.845,3.845,0,0,1,3.874,3.234l.452,2.809A3.844,3.844,0,0,0,146.6,67.17l3.356-.068" transform="translate(48.844 16.79)" fill="none" stroke="#91abe5" stroke-miterlimit="10" stroke-width="1.5"/><path d="M42.333,246.724,41,242.611a3.845,3.845,0,0,0-4.327-2.6l-2.789.494a3.844,3.844,0,0,1-4.325-2.6l-.872-2.692a3.844,3.844,0,0,0-4.325-2.6l-2.795.492a3.843,3.843,0,0,1-4.324-2.6l-.878-2.707a3.845,3.845,0,0,0-4.324-2.6l-3.305.581" transform="translate(3.557 91.655)" fill="none" stroke="#91abe5" stroke-miterlimit="10" stroke-width="1.5"/><path d="M499.711,127.886l4.307-.369a3.844,3.844,0,0,0,3.511-3.628l.151-2.828a3.844,3.844,0,0,1,3.511-3.626l2.82-.242a3.845,3.845,0,0,0,3.512-3.626l.151-2.834a3.846,3.846,0,0,1,3.508-3.626l2.835-.243a3.844,3.844,0,0,0,3.508-3.625l.18-3.352" transform="translate(203.439 40.665)" fill="none" stroke="#91abe5" stroke-miterlimit="10" stroke-width="1.5"/><path d="M600.447,164.055l-4.117,1.318a3.843,3.843,0,0,0-2.616,4.317l.484,2.79a3.844,3.844,0,0,1-2.617,4.317l-2.695.863a3.846,3.846,0,0,0-2.617,4.317l.484,2.8a3.846,3.846,0,0,1-2.615,4.317l-2.709.868a3.845,3.845,0,0,0-2.614,4.314l.571,3.308" transform="translate(235.62 66.789)" fill="none" stroke="#91abe5" stroke-miterlimit="10" stroke-width="1.5"/><path d="M610.781,298.218l3.585,2.415a3.845,3.845,0,0,0,5.009-.622l1.891-2.109a3.845,3.845,0,0,1,5.011-.622l2.347,1.58a3.843,3.843,0,0,0,5.009-.621l1.894-2.113a3.846,3.846,0,0,1,5.008-.623l2.361,1.589a3.844,3.844,0,0,0,5.005-.622l2.243-2.5" transform="translate(248.657 119.679)" fill="none" stroke="#91abe5" stroke-miterlimit="10" stroke-width="1.5"/><line x1="14.823" y2="9.146" transform="translate(807.078 283.77)" fill="none" stroke="#ff9c94" stroke-miterlimit="10" stroke-width="1.5"/><line x1="13.618" y2="10.859" transform="translate(658.657 91.551)" fill="none" stroke="#ff9c94" stroke-miterlimit="10" stroke-width="1.5"/><line x1="16.956" y1="3.984" transform="translate(352.328 112.762)" fill="none" stroke="#ff9c94" stroke-miterlimit="10" stroke-width="1.5"/><line x1="12.896" y1="11.706" transform="translate(35.179 178.804)" fill="none" stroke="#ff9c94" stroke-miterlimit="10" stroke-width="1.5"/></g></g></svg>